<svg viewBox="0 0 330 200" xmlns="http://www.w3.org/2000/svg"><g><g><g><g><g><line x1="42.390625" y1="176" x2="37.390625" y2="176" style="visibility: inherit;" fill="rgb(0, 0, 0)" stroke="rgb(204, 204, 204)" stroke-width="1px"></line><line x1="42.390625" y1="161.33333333333331" x2="37.390625" y2="161.33333333333331" style="visibility: inherit;" fill="rgb(0, 0, 0)" stroke="rgb(204, 204, 204)" stroke-width="1px"></line><line x1="42.390625" y1="146.66666666666669" x2="37.390625" y2="146.66666666666669" style="visibility: inherit;" fill="rgb(0, 0, 0)" stroke="rgb(204, 204, 204)" stroke-width="1px"></line><line x1="42.390625" y1="132" x2="37.390625" y2="132" style="visibility: inherit;" fill="rgb(0, 0, 0)" stroke="rgb(204, 204, 204)" stroke-width="1px"></line><line x1="42.390625" y1="117.33333333333334" x2="37.390625" y2="117.33333333333334" style="visibility: inherit;" fill="rgb(0, 0, 0)" stroke="rgb(204, 204, 204)" stroke-width="1px"></line><line x1="42.390625" y1="102.66666666666666" x2="37.390625" y2="102.66666666666666" style="visibility: inherit;" fill="rgb(0, 0, 0)" stroke="rgb(204, 204, 204)" stroke-width="1px"></line><line x1="42.390625" y1="88" x2="37.390625" y2="88" style="visibility: inherit;" fill="rgb(0, 0, 0)" stroke="rgb(204, 204, 204)" stroke-width="1px"></line><line x1="42.390625" y1="73.33333333333333" x2="37.390625" y2="73.33333333333333" style="visibility: inherit;" fill="rgb(0, 0, 0)" stroke="rgb(204, 204, 204)" stroke-width="1px"></line><line x1="42.390625" y1="58.66666666666667" x2="37.390625" y2="58.66666666666667" style="visibility: inherit;" fill="rgb(0, 0, 0)" stroke="rgb(204, 204, 204)" stroke-width="1px"></line><line x1="42.390625" y1="44" x2="37.390625" y2="44" style="visibility: inherit;" fill="rgb(0, 0, 0)" stroke="rgb(204, 204, 204)" stroke-width="1px"></line><line x1="42.390625" y1="29.33333333333333" x2="37.390625" y2="29.33333333333333" style="visibility: inherit;" fill="rgb(0, 0, 0)" stroke="rgb(204, 204, 204)" stroke-width="1px"></line><line x1="42.390625" y1="14.666666666666673" x2="37.390625" y2="14.666666666666673" style="visibility: inherit;" fill="rgb(0, 0, 0)" stroke="rgb(204, 204, 204)" stroke-width="1px"></line><line x1="42.390625" y1="0" x2="37.390625" y2="0" style="visibility: inherit;" fill="rgb(0, 0, 0)" stroke="rgb(204, 204, 204)" stroke-width="1px"></line></g><g transform="translate(32.390625, 0)"><text x="0" y="176" dx="0em" dy="0.3em" style="text-anchor: end; visibility: hidden; font-family: Roboto, sans-serif; font-size: 12px; font-weight: 200;" fill="rgb(33, 33, 33)" stroke="none" stroke-width="1px">-20</text><text x="0" y="161.33333333333331" dx="0em" dy="0.3em" style="text-anchor: end; visibility: inherit; font-family: Roboto, sans-serif; font-size: 12px; font-weight: 200;" fill="rgb(33, 33, 33)" stroke="none" stroke-width="1px">0</text><text x="0" y="146.66666666666669" dx="0em" dy="0.3em" style="text-anchor: end; visibility: hidden; font-family: Roboto, sans-serif; font-size: 12px; font-weight: 200;" fill="rgb(33, 33, 33)" stroke="none" stroke-width="1px">20</text><text x="0" y="132" dx="0em" dy="0.3em" style="text-anchor: end; visibility: inherit; font-family: Roboto, sans-serif; font-size: 12px; font-weight: 200;" fill="rgb(33, 33, 33)" stroke="none" stroke-width="1px">40</text><text x="0" y="117.33333333333334" dx="0em" dy="0.3em" style="text-anchor: end; visibility: hidden; font-family: Roboto, sans-serif; font-size: 12px; font-weight: 200;" fill="rgb(33, 33, 33)" stroke="none" stroke-width="1px">60</text><text x="0" y="102.66666666666666" dx="0em" dy="0.3em" style="text-anchor: end; visibility: inherit; font-family: Roboto, sans-serif; font-size: 12px; font-weight: 200;" fill="rgb(33, 33, 33)" stroke="none" stroke-width="1px">80</text><text x="0" y="88" dx="0em" dy="0.3em" style="text-anchor: end; visibility: hidden; font-family: Roboto, sans-serif; font-size: 12px; font-weight: 200;" fill="rgb(33, 33, 33)" stroke="none" stroke-width="1px">100</text><text x="0" y="73.33333333333333" dx="0em" dy="0.3em" style="text-anchor: end; visibility: inherit; font-family: Roboto, sans-serif; font-size: 12px; font-weight: 200;" fill="rgb(33, 33, 33)" stroke="none" stroke-width="1px">120</text><text x="0" y="58.66666666666667" dx="0em" dy="0.3em" style="text-anchor: end; visibility: hidden; font-family: Roboto, sans-serif; font-size: 12px; font-weight: 200;" fill="rgb(33, 33, 33)" stroke="none" stroke-width="1px">140</text><text x="0" y="44" dx="0em" dy="0.3em" style="text-anchor: end; visibility: inherit; font-family: Roboto, sans-serif; font-size: 12px; font-weight: 200;" fill="rgb(33, 33, 33)" stroke="none" stroke-width="1px">160</text><text x="0" y="29.33333333333333" dx="0em" dy="0.3em" style="text-anchor: end; visibility: hidden; font-family: Roboto, sans-serif; font-size: 12px; font-weight: 200;" fill="rgb(33, 33, 33)" stroke="none" stroke-width="1px">180</text><text x="0" y="14.666666666666673" dx="0em" dy="0.3em" style="text-anchor: end; visibility: inherit; font-family: Roboto, sans-serif; font-size: 12px; font-weight: 200;" fill="rgb(33, 33, 33)" stroke="none" stroke-width="1px">200</text><text x="0" y="0" dx="0em" dy="0.3em" style="text-anchor: end; visibility: hidden; font-family: Roboto, sans-serif; font-size: 12px; font-weight: 200;" fill="rgb(33, 33, 33)" stroke="none" stroke-width="1px">220</text></g><line x1="42.390625" y1="0" x2="42.390625" y2="176" fill="rgb(0, 0, 0)" stroke="rgb(204, 204, 204)" stroke-width="1px"></line></g></g><g transform="translate(42, 0)" clip-path="url(#clip_0)"><clipPath id="clip_0"><rect width="287" height="176"></rect></clipPath><g><g><g><line x1="0" y1="0" x2="0" y2="176" fill="rgb(0, 0, 0)" stroke="rgb(66, 66, 66)" stroke-width="1px" opacity="0.25"></line><line x1="35.951171875" y1="0" x2="35.951171875" y2="176" fill="rgb(0, 0, 0)" stroke="rgb(66, 66, 66)" stroke-width="1px" opacity="0.25"></line><line x1="71.90234375" y1="0" x2="71.90234375" y2="176" fill="rgb(0, 0, 0)" stroke="rgb(66, 66, 66)" stroke-width="1px" opacity="0.25"></line><line x1="107.853515625" y1="0" x2="107.853515625" y2="176" fill="rgb(0, 0, 0)" stroke="rgb(66, 66, 66)" stroke-width="1px" opacity="0.25"></line><line x1="143.8046875" y1="0" x2="143.8046875" y2="176" fill="rgb(0, 0, 0)" stroke="rgb(66, 66, 66)" stroke-width="1px" opacity="0.25"></line><line x1="179.755859375" y1="0" x2="179.755859375" y2="176" fill="rgb(0, 0, 0)" stroke="rgb(66, 66, 66)" stroke-width="1px" opacity="0.25"></line><line x1="215.70703125" y1="0" x2="215.70703125" y2="176" fill="rgb(0, 0, 0)" stroke="rgb(66, 66, 66)" stroke-width="1px" opacity="0.25"></line><line x1="251.658203125" y1="0" x2="251.658203125" y2="176" fill="rgb(0, 0, 0)" stroke="rgb(66, 66, 66)" stroke-width="1px" opacity="0.25"></line><line x1="287.609375" y1="0" x2="287.609375" y2="176" fill="rgb(0, 0, 0)" stroke="rgb(66, 66, 66)" stroke-width="1px" opacity="0.25"></line></g><g><line x1="0" y1="176" x2="287.609375" y2="176" fill="rgb(0, 0, 0)" stroke="rgb(66, 66, 66)" stroke-width="1px" opacity="0.25"></line><line x1="0" y1="161.33333333333331" x2="287.609375" y2="161.33333333333331" fill="rgb(0, 0, 0)" stroke="rgb(66, 66, 66)" stroke-width="1px" opacity="0.25"></line><line x1="0" y1="146.66666666666669" x2="287.609375" y2="146.66666666666669" fill="rgb(0, 0, 0)" stroke="rgb(66, 66, 66)" stroke-width="1px" opacity="0.25"></line><line x1="0" y1="132" x2="287.609375" y2="132" fill="rgb(0, 0, 0)" stroke="rgb(66, 66, 66)" stroke-width="1px" opacity="0.25"></line><line x1="0" y1="117.33333333333334" x2="287.609375" y2="117.33333333333334" fill="rgb(0, 0, 0)" stroke="rgb(66, 66, 66)" stroke-width="1px" opacity="0.25"></line><line x1="0" y1="102.66666666666666" x2="287.609375" y2="102.66666666666666" fill="rgb(0, 0, 0)" stroke="rgb(66, 66, 66)" stroke-width="1px" opacity="0.25"></line><line x1="0" y1="88" x2="287.609375" y2="88" fill="rgb(0, 0, 0)" stroke="rgb(66, 66, 66)" stroke-width="1px" opacity="0.25"></line><line x1="0" y1="73.33333333333333" x2="287.609375" y2="73.33333333333333" fill="rgb(0, 0, 0)" stroke="rgb(66, 66, 66)" stroke-width="1px" opacity="0.25"></line><line x1="0" y1="58.66666666666667" x2="287.609375" y2="58.66666666666667" fill="rgb(0, 0, 0)" stroke="rgb(66, 66, 66)" stroke-width="1px" opacity="0.25"></line><line x1="0" y1="44" x2="287.609375" y2="44" fill="rgb(0, 0, 0)" stroke="rgb(66, 66, 66)" stroke-width="1px" opacity="0.25"></line><line x1="0" y1="29.33333333333333" x2="287.609375" y2="29.33333333333333" fill="rgb(0, 0, 0)" stroke="rgb(66, 66, 66)" stroke-width="1px" opacity="0.25"></line><line x1="0" y1="14.666666666666673" x2="287.609375" y2="14.666666666666673" fill="rgb(0, 0, 0)" stroke="rgb(66, 66, 66)" stroke-width="1px" opacity="0.25"></line><line x1="0" y1="0" x2="287.609375" y2="0" fill="rgb(0, 0, 0)" stroke="rgb(66, 66, 66)" stroke-width="1px" opacity="0.25"></line></g></g></g><g><g><line x1="0" y1="161.33333333333331" x2="287.609375" y2="161.33333333333331" fill="rgb(0, 0, 0)" stroke="rgb(153, 153, 153)" stroke-width="1.5px"></line></g></g><g><g><line x1="35.951171875" y1="0" x2="35.951171875" y2="176" fill="rgb(0, 0, 0)" stroke="rgb(153, 153, 153)" stroke-width="1.5px"></line></g></g><g><g><g><g><g><path stroke="rgb(255, 112, 67)" stroke-width="2px" d="M35.951171875,148.86666666666667L36.6701953125,151.15833333333333L37.38921875,132.40408163265306L38.108242187500004,135.92549019607844L38.827265625,142.81068702290077L39.5462890625,144.73625134264233L40.2653125,147.03956209890524L40.9843359375,149.5729552019108L41.703359375,146.62068773375842L42.4223828125,132.7686546934779L43.141406249999996,140.70331285563606L43.8604296875,144.56372432220508L44.579453125,132.4824556179359L45.2984765625,139.33484318700067L46.0175,144.32325138683288L46.736523437500004,146.72796256088483L47.455546875,144.0629931128948L48.1745703125,146.8647470804151L48.89359375,149.13231975833213L49.6126171875,145.5059259349621L50.331640625,148.61029032793238L51.0506640625,146.36614465893177L51.769687499999996,148.2463683107202L52.4887109375,149.96116244511396L53.207734375,151.57670206009402L53.9267578125,151.95935522212613L54.64578125,153.06894760226612L55.3648046875,153.44136879006138L56.083828125000004,152.78482103212752L56.8028515625,153.564226124916L57.521875,153.4452023258284L58.2408984375,153.96045476983758L58.959921875,153.68293951531732L59.6789453125,154.3964303962994L60.39796875,154.82452491180555L61.116992187499996,154.78804828004044L61.836015625,154.1794956309248L62.5550390625,154.1076973782883L63.2740625,154.35795176086384L63.9930859375,154.21477105632692L64.712109375,154.12886263372727L65.4311328125,153.78398424673705L66.15015625000001,153.87039054806718L66.86917968750001,153.335567662081L67.58820312499999,153.01467393054858L68.30722656249999,153.70213769170536L69.02625,154.11461594837198L69.7452734375,153.77543623568224L70.464296875,152.69192840806141L71.1833203125,153.5084903781768L71.90234375,153.70509422690702L72.6213671875,154.11638986947875L73.340390625,154.65650058835485L74.0594140625,154.68723368634627L74.7784375,154.1190068784741L75.49746093750001,152.89807079375066L76.21648437500001,152.1655091429169L76.9355078125,152.60597215241685L77.65453125,151.99024995811672L78.3735546875,152.50081664153674L79.092578125,153.10048998492206L79.8116015625,153.75362732428658L80.530625,152.97217639457193L81.2496484375,151.91663917007648L81.968671875,152.16331683537925L82.6876953125,152.89799010122755L83.40671875,153.63212739406987L84.1257421875,153.7792764364419L84.844765625,153.86756586186516L85.56378906249999,152.45387285045243L86.28281249999999,152.7789903769381L87.0018359375,153.5607275594962L87.720859375,150.21643653569774L88.4398828125,152.02319525475195L89.15890625,150.17391715285117L89.8779296875,151.7043502917107L90.596953125,152.3292768416931L91.3159765625,152.7042327716825L92.035,152.63587299634287L92.7540234375,152.59485713113904L93.47304687500001,150.5169142786834L94.19207031250001,151.6168152338767L94.91109375,151.69008914032602L95.6301171875,151.14738681752897L96.349140625,150.8217654238507L97.0681640625,149.74639258764375L97.7871875,150.8611688859196L98.5062109375,151.53003466488508L99.225234375,150.4646874655977L99.9442578125,151.5854791460253L100.66328125,149.91128748761517L101.3823046875,150.66677249256912L102.101328125,151.4133968288748L102.8203515625,150.10137143065822L103.53937499999999,151.95415619172826L104.25839843749999,147.49249371503697L104.977421875,149.21549622902216L105.6964453125,150.54263107074667L106.41546875,151.045578642448L107.1344921875,150.76068051880213L107.853515625,148.82974164461461L108.5725390625,150.89784498676877L109.2915625,148.61870699206125L110.0105859375,149.01122419523676L110.729609375,149.83340118380872L111.44863281250001,151.2067073769519L112.16765625000001,147.33735775950447L112.8866796875,148.24241465570267L113.605703125,148.7854487934216L114.3247265625,147.64460260938628L115.04375,146.37342823229844L115.7627734375,146.78405693937907L116.481796875,144.97710083029412L117.2008203125,143.01292716484312L117.91984375,146.52775629890587L118.6388671875,147.75665377934354L119.357890625,150.54732560093944L120.0769140625,148.99506202723035L120.7959375,149.53037054967155L121.51496093749999,148.97155566313626L122.23398437499999,146.87626673121508L122.9530078125,147.96576003872906L123.67203125,148.61945602323743L124.3910546875,145.49167361394245L125.110078125,148.30833750169882L125.8291015625,148.53166916768595L126.548125,149.83900150061157L127.2671484375,149.4500675670336L127.986171875,150.39004054022016L128.7051953125,147.72735765746543L129.42421875,148.47641459447925L130.1432421875,144.8191820900209L130.862265625,147.61150925401253L131.5812890625,144.00690555240752L132.30031250000002,147.7108099981112L133.01933593750002,147.87981933220004L133.73835937500002,139.47455826598667L134.45738281250001,143.23140162625867L135.17640624999999,143.72550764242186L135.89542968749998,140.50197125211977L136.61445312499998,141.20784941793855L137.33347656249998,143.68470965076312L138.0525,143.11749245712454L138.7715234375,145.71049547427472L139.490546875,144.91963061789818L140.2095703125,143.56511170407225L140.92859375,142.45906702244335L141.6476171875,144.43544021346602L142.366640625,141.80793079474628L143.0856640625,139.9380918101811L143.8046875,140.86952175277534L144.5237109375,141.72171305166518L145.242734375,143.40636116433245L145.9617578125,141.7771500319328L146.68078125,133.4662900191597L147.3998046875,125.8397740114958L148.118828125,132.11719774023084L148.8378515625,135.29698531080516L149.556875,132.80485785314974L150.2758984375,127.78958137855652L150.99492187500002,125.95374882713392L151.7139453125,123.38558262961368L152.43296875000001,127.41801624443487L153.15199218749999,114.29080974666093L153.871015625,109.93448584799654L154.59003906249998,103.21402484213127L155.3090625,69.84841490527876L156.0280859375,80.62904894316725L156.747109375,81.52409603256703L157.4661328125,82.35445761954023L158.18515625,89.5993412383908L158.9041796875,83.9729380763678L159.623203125,81.77042951248737L160.3422265625,63.142257707492426L161.06125,44.63202129116211L161.7802734375,65.79254610803062L162.499296875,45.34219433148505L163.2183203125,33.07198326555769L163.93734375,59.4431899593346L164.6563671875,41.53258064226745L165.375390625,53.37288171869379L166.0944140625,37.890395697882944L166.8134375,60.28090408539642L167.5324609375,44.08854245123786L168.251484375,32.319792137409365L168.97050781250002,44.618541949112284L169.68953125,55.81112516946737L170.40855468750001,67.22000843501374L171.12757812499999,84.9186717276749L171.8466015625,109.91120303660495L172.56562499999998,126.37338848862964L173.2846484375,110.14403309317777L174.003671875,104.80641985590665L174.7226953125,93.09718524687732L175.44171875,87.53831114812638L176.1607421875,81.85632002220919L176.879765625,74.04712534665886L177.5987890625,85.49494187466198L178.3178125,83.27029845813051L179.0368359375,108.0421790748783L179.755859375,111.7586407782603L180.4748828125,104.89518446695618L181.19390625,108.99044401350703L181.9129296875,99.12759974143756L182.631953125,90.27655984486253L183.3509765625,81.73926924025086L184.07,83.95022821081717L184.7890234375,77.94347025982364L185.508046875,66.1260821558942L186.2270703125,56.68898262686986L186.94609375000002,69.21338957612193L187.6651171875,55.90136707900649L188.38414062500001,48.79415358073723L189.10316406249999,35.14315881510902L189.8221875,26.952561955732065L190.54121093749998,22.03820384010591L191.260234375,19.089588970730208L191.9792578125,17.320420049104804L192.69828125,16.258918696129562L193.4173046875,15.622017884344421L194.136328125,15.239877397273318L194.8553515625,15.010593105030656L195.574375,14.873022529685079L196.2933984375,14.790480184477705L197.012421875,14.740954777353304L197.7314453125,14.71123953307864L198.45046875,14.693410386513841L199.1694921875,14.682712898575002L199.888515625,14.676294405811658L200.6075390625,14.67244331015368L201.3265625,14.670132652758893L202.0455859375,14.668746258322017L202.764609375,14.667914421659868L203.4836328125,14.66741531966261L204.20265625,14.667115858464223L204.92167968750002,14.666936181745227L205.640703125,14.66682837571381L206.35972656250001,14.666763692094959L207.07874999999999,14.666724881923637L207.7977734375,14.666701595820879L208.51679687499998,14.66668762415918L209.2358203125,14.666679241162166L209.95484375,14.666674211363985L210.6738671875,14.66667119348506L211.392890625,17.600002716091048L212.1119140625,16.426668296321296L212.8309375,24.52266764445945L213.5499609375,27.033600586675657L214.268984375,23.260160352005393L214.9880078125,19.822762877869913L215.70703125,17.760324393388615L216.4260546875,16.52286130269984L217.145078125,15.780383448286582L217.8641015625,15.334896735638626L218.583125,15.067604708049853L219.3021484375,14.907229491496585L220.021171875,18.331004361564627L220.7401953125,18.625269283605434L221.45921875,17.04182823682993L222.1782421875,17.851763608764617L222.89726562500002,16.577724831925448L223.6162890625,20.506634899155262L224.33531250000001,18.170647606159832L225.05433593749999,16.769055230362554L225.773359375,15.928099804884193L226.49238281249998,15.4235265495972L227.21140625,15.12078259642499L227.9304296875,14.939136224521663L228.649453125,47.390148401379676L229.3684765625,34.30075570749449L230.0875,26.44712009116335L230.8065234375,21.7349387213647L231.525546875,18.90762989948549L232.2445703125,17.211244606357955L232.96359375,68.4067467638148L233.6826171875,46.91071472495555L234.401640625,34.013095501639974L235.1206640625,26.27452396765065L235.8396875,21.631381047257065L236.5587109375,18.84549529502092L237.277734375,17.173963843679232L237.9967578125,16.171044972874192L238.71578125,15.569293650391213L239.4348046875,15.20824285690139L240.153828125,14.991612380807483L240.87285156250002,14.861634095151171L241.591875,14.78364712375738L242.31089843750001,14.736854940921093L243.02992187499999,14.708779631219329L243.7489453125,14.691934445398255L244.46796874999998,14.681827333905634L245.1869921875,14.675763067010061L245.906015625,14.672124506872702L246.6250390625,14.669941370790271L247.3440625,14.668631489140836L248.0630859375,14.667845560151159L248.782109375,14.667374002757365L249.5011328125,14.667091068321072L250.22015625,14.66692130765932L250.9391796875,14.666819451262262L251.658203125,14.666758337424026L252.3772265625,14.666721669121081L253.09625,14.666699668139314L253.8152734375,14.666686467550266L254.534296875,14.666678547196817L255.2533203125,14.666673794984748L255.97234375,14.666670943657522L256.69136718749996,14.666669232861175L257.410390625,14.666668206383394L258.1294140625,14.666667590496694L258.8484375,14.666667220964682L259.5674609375,14.666666999245482L260.286484375,14.666666866213978L261.0055078125,14.666666786395044L261.72453125,14.666666738503704L262.4435546875,14.666666709768895" style="fill: none;" fill="none"></path></g></g></g></g><g opacity="0.2"><g><g><g><path stroke="rgb(255, 112, 67)" stroke-width="2px" d="M35.951171875,148.86666666666667L36.6701953125,152.53333333333333L37.38921875,114.4L38.108242187500004,140.06666666666666L38.827265625,151.8L39.5462890625,147.4L40.2653125,150.33333333333331L40.9843359375,153.26666666666668L41.703359375,142.26666666666668L42.4223828125,112.19999999999999L43.141406249999996,152.53333333333333L43.8604296875,150.33333333333331L44.579453125,114.4L45.2984765625,149.6L46.0175,151.8L46.736523437500004,150.33333333333331L47.455546875,140.06666666666666L48.1745703125,151.06666666666666L48.89359375,152.53333333333333L49.6126171875,140.06666666666666L50.331640625,153.26666666666668L51.0506640625,143L51.769687499999996,151.06666666666666L52.4887109375,152.53333333333333L53.207734375,154L53.9267578125,152.53333333333333L54.64578125,154.73333333333332L55.3648046875,154L56.083828125000004,151.8L56.8028515625,154.73333333333332L57.521875,153.26666666666668L58.2408984375,154.73333333333332L58.959921875,153.26666666666668L59.6789453125,155.46666666666667L60.39796875,155.46666666666667L61.116992187499996,154.73333333333332L61.836015625,153.26666666666668L62.5550390625,154L63.2740625,154.73333333333332L63.9930859375,154L64.712109375,154L65.4311328125,153.26666666666668L66.15015625000001,154L66.86917968750001,152.53333333333333L67.58820312499999,152.53333333333333L68.30722656249999,154.73333333333332L69.02625,154.73333333333332L69.7452734375,153.26666666666668L70.464296875,151.06666666666666L71.1833203125,154.73333333333332L71.90234375,154L72.6213671875,154.73333333333332L73.340390625,155.46666666666667L74.0594140625,154.73333333333332L74.7784375,153.26666666666668L75.49746093750001,151.06666666666666L76.21648437500001,151.06666666666666L76.9355078125,153.26666666666668L77.65453125,151.06666666666666L78.3735546875,153.26666666666668L79.092578125,154L79.8116015625,154.73333333333332L80.530625,151.8L81.2496484375,150.33333333333331L81.968671875,152.53333333333333L82.6876953125,154L83.40671875,154.73333333333332L84.1257421875,154L84.844765625,154L85.56378906249999,150.33333333333331L86.28281249999999,153.26666666666668L87.0018359375,154.73333333333332L87.720859375,145.2L88.4398828125,154.73333333333332L89.15890625,147.4L89.8779296875,154L90.596953125,153.26666666666668L91.3159765625,153.26666666666668L92.035,152.53333333333333L92.7540234375,152.53333333333333L93.47304687500001,147.4L94.19207031250001,153.26666666666668L94.91109375,151.8L95.6301171875,150.33333333333331L96.349140625,150.33333333333331L97.0681640625,148.13333333333333L97.7871875,152.53333333333333L98.5062109375,152.53333333333333L99.225234375,148.86666666666667L99.9442578125,153.26666666666668L100.66328125,147.4L101.3823046875,151.8L102.101328125,152.53333333333333L102.8203515625,148.13333333333333L103.53937499999999,154.73333333333332L104.25839843749999,140.8L104.977421875,151.8L105.6964453125,152.53333333333333L106.41546875,151.8L107.1344921875,150.33333333333331L107.853515625,145.93333333333334L108.5725390625,154L109.2915625,145.2L110.0105859375,149.6L110.729609375,151.06666666666666L111.44863281250001,153.26666666666668L112.16765625000001,141.53333333333333L112.8866796875,149.6L113.605703125,149.6L114.3247265625,145.93333333333334L115.04375,144.46666666666667L115.7627734375,147.4L116.481796875,142.26666666666668L117.2008203125,140.06666666666666L117.91984375,151.8L118.6388671875,149.6L119.357890625,154.73333333333332L120.0769140625,146.66666666666669L120.7959375,150.33333333333331L121.51496093749999,148.13333333333333L122.23398437499999,143.73333333333332L122.9530078125,149.6L123.67203125,149.6L124.3910546875,140.8L125.110078125,152.53333333333333L125.8291015625,148.86666666666667L126.548125,151.8L127.2671484375,148.86666666666667L127.986171875,151.8L128.7051953125,143.73333333333332L129.42421875,149.6L130.1432421875,139.33333333333331L130.862265625,151.8L131.5812890625,138.6L132.30031250000002,153.26666666666668L133.01933593750002,148.13333333333333L133.73835937500002,126.86666666666666L134.45738281250001,148.86666666666667L135.17640624999999,144.46666666666667L135.89542968749998,135.66666666666669L136.61445312499998,142.26666666666668L137.33347656249998,147.4L138.0525,142.26666666666668L138.7715234375,149.6L139.490546875,143.73333333333332L140.2095703125,141.53333333333333L140.92859375,140.8L141.6476171875,147.4L142.366640625,137.86666666666667L143.0856640625,137.13333333333333L143.8046875,142.26666666666668L144.5237109375,143L145.242734375,145.93333333333334L145.9617578125,139.33333333333331L146.68078125,121L147.3998046875,114.4L148.118828125,141.53333333333333L148.8378515625,140.06666666666666L149.556875,129.06666666666666L150.2758984375,120.26666666666667L150.99492187500002,123.19999999999999L151.7139453125,119.53333333333333L152.43296875000001,133.46666666666667L153.15199218749999,94.6L153.871015625,103.4L154.59003906249998,93.13333333333334L155.3090625,19.800000000000008L156.0280859375,96.80000000000001L156.747109375,82.86666666666666L157.4661328125,83.6L158.18515625,100.46666666666667L158.9041796875,75.53333333333333L159.623203125,78.46666666666667L160.3422265625,35.19999999999999L161.06125,16.866666666666667L161.7802734375,97.53333333333333L162.499296875,14.666666666666673L163.2183203125,14.666666666666673L163.93734375,99L164.6563671875,14.666666666666673L165.375390625,71.13333333333334L166.0944140625,14.666666666666673L166.8134375,93.86666666666666L167.5324609375,19.800000000000008L168.251484375,14.666666666666673L168.97050781250002,63.066666666666656L169.68953125,72.6L170.40855468750001,84.33333333333333L171.12757812499999,111.46666666666667L171.8466015625,147.4L172.56562499999998,151.06666666666666L173.2846484375,85.80000000000001L174.003671875,96.80000000000001L174.7226953125,75.53333333333333L175.44171875,79.19999999999999L176.1607421875,73.33333333333333L176.879765625,62.33333333333333L177.5987890625,102.66666666666666L178.3178125,79.93333333333334L179.0368359375,145.2L179.755859375,117.33333333333334L180.4748828125,94.6L181.19390625,115.13333333333334L181.9129296875,84.33333333333333L182.631953125,77L183.3509765625,68.93333333333334L184.07,87.26666666666667L184.7890234375,68.93333333333334L185.508046875,48.400000000000006L186.2270703125,42.53333333333334L186.94609375000002,88L187.6651171875,35.933333333333344L188.38414062500001,38.13333333333333L189.10316406249999,14.666666666666673L189.8221875,14.666666666666673L190.54121093749998,14.666666666666673L191.260234375,14.666666666666673L191.9792578125,14.666666666666673L192.69828125,14.666666666666673L193.4173046875,14.666666666666673L194.136328125,14.666666666666673L194.8553515625,14.666666666666673L195.574375,14.666666666666673L196.2933984375,14.666666666666673L197.012421875,14.666666666666673L197.7314453125,14.666666666666673L198.45046875,14.666666666666673L199.1694921875,14.666666666666673L199.888515625,14.666666666666673L200.6075390625,14.666666666666673L201.3265625,14.666666666666673L202.0455859375,14.666666666666673L202.764609375,14.666666666666673L203.4836328125,14.666666666666673L204.20265625,14.666666666666673L204.92167968750002,14.666666666666673L205.640703125,14.666666666666673L206.35972656250001,14.666666666666673L207.07874999999999,14.666666666666673L207.7977734375,14.666666666666673L208.51679687499998,14.666666666666673L209.2358203125,14.666666666666673L209.95484375,14.666666666666673L210.6738671875,14.666666666666673L211.392890625,22L212.1119140625,14.666666666666673L212.8309375,36.66666666666667L213.5499609375,30.800000000000008L214.268984375,17.599999999999994L214.9880078125,14.666666666666673L215.70703125,14.666666666666673L216.4260546875,14.666666666666673L217.145078125,14.666666666666673L217.8641015625,14.666666666666673L218.583125,14.666666666666673L219.3021484375,14.666666666666673L220.021171875,23.46666666666666L220.7401953125,19.066666666666656L221.45921875,14.666666666666673L222.1782421875,19.066666666666656L222.89726562500002,14.666666666666673L223.6162890625,26.400000000000006L224.33531250000001,14.666666666666673L225.05433593749999,14.666666666666673L225.773359375,14.666666666666673L226.49238281249998,14.666666666666673L227.21140625,14.666666666666673L227.9304296875,14.666666666666673L228.649453125,96.06666666666668L229.3684765625,14.666666666666673L230.0875,14.666666666666673L230.8065234375,14.666666666666673L231.525546875,14.666666666666673L232.2445703125,14.666666666666673L232.96359375,145.2L233.6826171875,14.666666666666673L234.401640625,14.666666666666673L235.1206640625,14.666666666666673L235.8396875,14.666666666666673L236.5587109375,14.666666666666673L237.277734375,14.666666666666673L237.9967578125,14.666666666666673L238.71578125,14.666666666666673L239.4348046875,14.666666666666673L240.153828125,14.666666666666673L240.87285156250002,14.666666666666673L241.591875,14.666666666666673L242.31089843750001,14.666666666666673L243.02992187499999,14.666666666666673L243.7489453125,14.666666666666673L244.46796874999998,14.666666666666673L245.1869921875,14.666666666666673L245.906015625,14.666666666666673L246.6250390625,14.666666666666673L247.3440625,14.666666666666673L248.0630859375,14.666666666666673L248.782109375,14.666666666666673L249.5011328125,14.666666666666673L250.22015625,14.666666666666673L250.9391796875,14.666666666666673L251.658203125,14.666666666666673L252.3772265625,14.666666666666673L253.09625,14.666666666666673L253.8152734375,14.666666666666673L254.534296875,14.666666666666673L255.2533203125,14.666666666666673L255.97234375,14.666666666666673L256.69136718749996,14.666666666666673L257.410390625,14.666666666666673L258.1294140625,14.666666666666673L258.8484375,14.666666666666673L259.5674609375,14.666666666666673L260.286484375,14.666666666666673L261.0055078125,14.666666666666673L261.72453125,14.666666666666673L262.4435546875,14.666666666666673" style="fill: none;" fill="none"></path></g></g></g></g></g></g><g transform="translate(42, 176)" clip-path="url(#clip_1)"><clipPath id="clip_1"><rect width="287" height="24"></rect></clipPath><g><g><line x1="0" y1="0" x2="0" y2="5" style="visibility: inherit;" fill="rgb(0, 0, 0)" stroke="rgb(204, 204, 204)" stroke-width="1px"></line><line x1="35.951171875" y1="0" x2="35.951171875" y2="5" style="visibility: inherit;" fill="rgb(0, 0, 0)" stroke="rgb(204, 204, 204)" stroke-width="1px"></line><line x1="71.90234375" y1="0" x2="71.90234375" y2="5" style="visibility: inherit;" fill="rgb(0, 0, 0)" stroke="rgb(204, 204, 204)" stroke-width="1px"></line><line x1="107.853515625" y1="0" x2="107.853515625" y2="5" style="visibility: inherit;" fill="rgb(0, 0, 0)" stroke="rgb(204, 204, 204)" stroke-width="1px"></line><line x1="143.8046875" y1="0" x2="143.8046875" y2="5" style="visibility: inherit;" fill="rgb(0, 0, 0)" stroke="rgb(204, 204, 204)" stroke-width="1px"></line><line x1="179.755859375" y1="0" x2="179.755859375" y2="5" style="visibility: inherit;" fill="rgb(0, 0, 0)" stroke="rgb(204, 204, 204)" stroke-width="1px"></line><line x1="215.70703125" y1="0" x2="215.70703125" y2="5" style="visibility: inherit;" fill="rgb(0, 0, 0)" stroke="rgb(204, 204, 204)" stroke-width="1px"></line><line x1="251.658203125" y1="0" x2="251.658203125" y2="5" style="visibility: inherit;" fill="rgb(0, 0, 0)" stroke="rgb(204, 204, 204)" stroke-width="1px"></line><line x1="287.609375" y1="0" x2="287.609375" y2="5" style="visibility: inherit;" fill="rgb(0, 0, 0)" stroke="rgb(204, 204, 204)" stroke-width="1px"></line></g><g transform="translate(0, 8)"><text x="0" y="0" dx="0em" dy="0.95em" style="text-anchor: middle; visibility: hidden; font-family: Roboto, sans-serif; font-size: 12px; font-weight: 200;" fill="rgb(33, 33, 33)" stroke="none" stroke-width="1px">-50</text><text x="35.951171875" y="0" dx="0em" dy="0.95em" style="text-anchor: middle; visibility: inherit; font-family: Roboto, sans-serif; font-size: 12px; font-weight: 200;" fill="rgb(33, 33, 33)" stroke="none" stroke-width="1px">0</text><text x="71.90234375" y="0" dx="0em" dy="0.95em" style="text-anchor: middle; visibility: inherit; font-family: Roboto, sans-serif; font-size: 12px; font-weight: 200;" fill="rgb(33, 33, 33)" stroke="none" stroke-width="1px">50</text><text x="107.853515625" y="0" dx="0em" dy="0.95em" style="text-anchor: middle; visibility: inherit; font-family: Roboto, sans-serif; font-size: 12px; font-weight: 200;" fill="rgb(33, 33, 33)" stroke="none" stroke-width="1px">100</text><text x="143.8046875" y="0" dx="0em" dy="0.95em" style="text-anchor: middle; visibility: inherit; font-family: Roboto, sans-serif; font-size: 12px; font-weight: 200;" fill="rgb(33, 33, 33)" stroke="none" stroke-width="1px">150</text><text x="179.755859375" y="0" dx="0em" dy="0.95em" style="text-anchor: middle; visibility: inherit; font-family: Roboto, sans-serif; font-size: 12px; font-weight: 200;" fill="rgb(33, 33, 33)" stroke="none" stroke-width="1px">200</text><text x="215.70703125" y="0" dx="0em" dy="0.95em" style="text-anchor: middle; visibility: inherit; font-family: Roboto, sans-serif; font-size: 12px; font-weight: 200;" fill="rgb(33, 33, 33)" stroke="none" stroke-width="1px">250</text><text x="251.658203125" y="0" dx="0em" dy="0.95em" style="text-anchor: middle; visibility: inherit; font-family: Roboto, sans-serif; font-size: 12px; font-weight: 200;" fill="rgb(33, 33, 33)" stroke="none" stroke-width="1px">300</text><text x="287.609375" y="0" dx="0em" dy="0.95em" style="text-anchor: middle; visibility: hidden; font-family: Roboto, sans-serif; font-size: 12px; font-weight: 200;" fill="rgb(33, 33, 33)" stroke="none" stroke-width="1px">350</text></g><line x1="0" y1="0" x2="287.609375" y2="0" fill="rgb(0, 0, 0)" stroke="rgb(204, 204, 204)" stroke-width="1px"></line></g></g></g></g></svg>