<svg viewBox="0 0 330 200" xmlns="http://www.w3.org/2000/svg"><g><g><g><g><g><line x1="42.390625" y1="176" x2="37.390625" y2="176" style="visibility: inherit;" fill="rgb(0, 0, 0)" stroke="rgb(204, 204, 204)" stroke-width="1px"></line><line x1="42.390625" y1="158.4" x2="37.390625" y2="158.4" style="visibility: inherit;" fill="rgb(0, 0, 0)" stroke="rgb(204, 204, 204)" stroke-width="1px"></line><line x1="42.390625" y1="140.8" x2="37.390625" y2="140.8" style="visibility: inherit;" fill="rgb(0, 0, 0)" stroke="rgb(204, 204, 204)" stroke-width="1px"></line><line x1="42.390625" y1="123.19999999999999" x2="37.390625" y2="123.19999999999999" style="visibility: inherit;" fill="rgb(0, 0, 0)" stroke="rgb(204, 204, 204)" stroke-width="1px"></line><line x1="42.390625" y1="105.6" x2="37.390625" y2="105.6" style="visibility: inherit;" fill="rgb(0, 0, 0)" stroke="rgb(204, 204, 204)" stroke-width="1px"></line><line x1="42.390625" y1="88" x2="37.390625" y2="88" style="visibility: inherit;" fill="rgb(0, 0, 0)" stroke="rgb(204, 204, 204)" stroke-width="1px"></line><line x1="42.390625" y1="70.4" x2="37.390625" y2="70.4" style="visibility: inherit;" fill="rgb(0, 0, 0)" stroke="rgb(204, 204, 204)" stroke-width="1px"></line><line x1="42.390625" y1="52.80000000000001" x2="37.390625" y2="52.80000000000001" style="visibility: inherit;" fill="rgb(0, 0, 0)" stroke="rgb(204, 204, 204)" stroke-width="1px"></line><line x1="42.390625" y1="35.19999999999999" x2="37.390625" y2="35.19999999999999" style="visibility: inherit;" fill="rgb(0, 0, 0)" stroke="rgb(204, 204, 204)" stroke-width="1px"></line><line x1="42.390625" y1="17.599999999999994" x2="37.390625" y2="17.599999999999994" style="visibility: inherit;" fill="rgb(0, 0, 0)" stroke="rgb(204, 204, 204)" stroke-width="1px"></line><line x1="42.390625" y1="0" x2="37.390625" y2="0" style="visibility: inherit;" fill="rgb(0, 0, 0)" stroke="rgb(204, 204, 204)" stroke-width="1px"></line></g><g transform="translate(32.390625, 0)"><text x="0" y="176" dx="0em" dy="0.3em" style="text-anchor: end; visibility: hidden; font-family: Roboto, sans-serif; font-size: 12px; font-weight: 200;" fill="rgb(33, 33, 33)" stroke="none" stroke-width="1px">-25</text><text x="0" y="158.4" dx="0em" dy="0.3em" style="text-anchor: end; visibility: inherit; font-family: Roboto, sans-serif; font-size: 12px; font-weight: 200;" fill="rgb(33, 33, 33)" stroke="none" stroke-width="1px">-20</text><text x="0" y="140.8" dx="0em" dy="0.3em" style="text-anchor: end; visibility: hidden; font-family: Roboto, sans-serif; font-size: 12px; font-weight: 200;" fill="rgb(33, 33, 33)" stroke="none" stroke-width="1px">-15</text><text x="0" y="123.19999999999999" dx="0em" dy="0.3em" style="text-anchor: end; visibility: inherit; font-family: Roboto, sans-serif; font-size: 12px; font-weight: 200;" fill="rgb(33, 33, 33)" stroke="none" stroke-width="1px">-10</text><text x="0" y="105.6" dx="0em" dy="0.3em" style="text-anchor: end; visibility: hidden; font-family: Roboto, sans-serif; font-size: 12px; font-weight: 200;" fill="rgb(33, 33, 33)" stroke="none" stroke-width="1px">-5</text><text x="0" y="88" dx="0em" dy="0.3em" style="text-anchor: end; visibility: inherit; font-family: Roboto, sans-serif; font-size: 12px; font-weight: 200;" fill="rgb(33, 33, 33)" stroke="none" stroke-width="1px">0</text><text x="0" y="70.4" dx="0em" dy="0.3em" style="text-anchor: end; visibility: hidden; font-family: Roboto, sans-serif; font-size: 12px; font-weight: 200;" fill="rgb(33, 33, 33)" stroke="none" stroke-width="1px">5</text><text x="0" y="52.80000000000001" dx="0em" dy="0.3em" style="text-anchor: end; visibility: inherit; font-family: Roboto, sans-serif; font-size: 12px; font-weight: 200;" fill="rgb(33, 33, 33)" stroke="none" stroke-width="1px">10</text><text x="0" y="35.19999999999999" dx="0em" dy="0.3em" style="text-anchor: end; visibility: hidden; font-family: Roboto, sans-serif; font-size: 12px; font-weight: 200;" fill="rgb(33, 33, 33)" stroke="none" stroke-width="1px">15</text><text x="0" y="17.599999999999994" dx="0em" dy="0.3em" style="text-anchor: end; visibility: inherit; font-family: Roboto, sans-serif; font-size: 12px; font-weight: 200;" fill="rgb(33, 33, 33)" stroke="none" stroke-width="1px">20</text><text x="0" y="0" dx="0em" dy="0.3em" style="text-anchor: end; visibility: hidden; font-family: Roboto, sans-serif; font-size: 12px; font-weight: 200;" fill="rgb(33, 33, 33)" stroke="none" stroke-width="1px">25</text></g><line x1="42.390625" y1="0" x2="42.390625" y2="176" fill="rgb(0, 0, 0)" stroke="rgb(204, 204, 204)" stroke-width="1px"></line></g></g><g transform="translate(42, 0)" clip-path="url(#clip_0)"><clipPath id="clip_0"><rect width="287" height="176"></rect></clipPath><g><g><g><line x1="0" y1="0" x2="0" y2="176" fill="rgb(0, 0, 0)" stroke="rgb(66, 66, 66)" stroke-width="1px" opacity="0.25"></line><line x1="23.967447916666664" y1="0" x2="23.967447916666664" y2="176" fill="rgb(0, 0, 0)" stroke="rgb(66, 66, 66)" stroke-width="1px" opacity="0.25"></line><line x1="47.93489583333333" y1="0" x2="47.93489583333333" y2="176" fill="rgb(0, 0, 0)" stroke="rgb(66, 66, 66)" stroke-width="1px" opacity="0.25"></line><line x1="71.90234375" y1="0" x2="71.90234375" y2="176" fill="rgb(0, 0, 0)" stroke="rgb(66, 66, 66)" stroke-width="1px" opacity="0.25"></line><line x1="95.86979166666666" y1="0" x2="95.86979166666666" y2="176" fill="rgb(0, 0, 0)" stroke="rgb(66, 66, 66)" stroke-width="1px" opacity="0.25"></line><line x1="119.83723958333334" y1="0" x2="119.83723958333334" y2="176" fill="rgb(0, 0, 0)" stroke="rgb(66, 66, 66)" stroke-width="1px" opacity="0.25"></line><line x1="143.8046875" y1="0" x2="143.8046875" y2="176" fill="rgb(0, 0, 0)" stroke="rgb(66, 66, 66)" stroke-width="1px" opacity="0.25"></line><line x1="167.77213541666669" y1="0" x2="167.77213541666669" y2="176" fill="rgb(0, 0, 0)" stroke="rgb(66, 66, 66)" stroke-width="1px" opacity="0.25"></line><line x1="191.73958333333331" y1="0" x2="191.73958333333331" y2="176" fill="rgb(0, 0, 0)" stroke="rgb(66, 66, 66)" stroke-width="1px" opacity="0.25"></line><line x1="215.70703125" y1="0" x2="215.70703125" y2="176" fill="rgb(0, 0, 0)" stroke="rgb(66, 66, 66)" stroke-width="1px" opacity="0.25"></line><line x1="239.67447916666669" y1="0" x2="239.67447916666669" y2="176" fill="rgb(0, 0, 0)" stroke="rgb(66, 66, 66)" stroke-width="1px" opacity="0.25"></line><line x1="263.6419270833333" y1="0" x2="263.6419270833333" y2="176" fill="rgb(0, 0, 0)" stroke="rgb(66, 66, 66)" stroke-width="1px" opacity="0.25"></line><line x1="287.609375" y1="0" x2="287.609375" y2="176" fill="rgb(0, 0, 0)" stroke="rgb(66, 66, 66)" stroke-width="1px" opacity="0.25"></line></g><g><line x1="0" y1="176" x2="287.609375" y2="176" fill="rgb(0, 0, 0)" stroke="rgb(66, 66, 66)" stroke-width="1px" opacity="0.25"></line><line x1="0" y1="158.4" x2="287.609375" y2="158.4" fill="rgb(0, 0, 0)" stroke="rgb(66, 66, 66)" stroke-width="1px" opacity="0.25"></line><line x1="0" y1="140.8" x2="287.609375" y2="140.8" fill="rgb(0, 0, 0)" stroke="rgb(66, 66, 66)" stroke-width="1px" opacity="0.25"></line><line x1="0" y1="123.19999999999999" x2="287.609375" y2="123.19999999999999" fill="rgb(0, 0, 0)" stroke="rgb(66, 66, 66)" stroke-width="1px" opacity="0.25"></line><line x1="0" y1="105.6" x2="287.609375" y2="105.6" fill="rgb(0, 0, 0)" stroke="rgb(66, 66, 66)" stroke-width="1px" opacity="0.25"></line><line x1="0" y1="88" x2="287.609375" y2="88" fill="rgb(0, 0, 0)" stroke="rgb(66, 66, 66)" stroke-width="1px" opacity="0.25"></line><line x1="0" y1="70.4" x2="287.609375" y2="70.4" fill="rgb(0, 0, 0)" stroke="rgb(66, 66, 66)" stroke-width="1px" opacity="0.25"></line><line x1="0" y1="52.80000000000001" x2="287.609375" y2="52.80000000000001" fill="rgb(0, 0, 0)" stroke="rgb(66, 66, 66)" stroke-width="1px" opacity="0.25"></line><line x1="0" y1="35.19999999999999" x2="287.609375" y2="35.19999999999999" fill="rgb(0, 0, 0)" stroke="rgb(66, 66, 66)" stroke-width="1px" opacity="0.25"></line><line x1="0" y1="17.599999999999994" x2="287.609375" y2="17.599999999999994" fill="rgb(0, 0, 0)" stroke="rgb(66, 66, 66)" stroke-width="1px" opacity="0.25"></line><line x1="0" y1="0" x2="287.609375" y2="0" fill="rgb(0, 0, 0)" stroke="rgb(66, 66, 66)" stroke-width="1px" opacity="0.25"></line></g></g></g><g><g><line x1="0" y1="88" x2="287.609375" y2="88" fill="rgb(0, 0, 0)" stroke="rgb(153, 153, 153)" stroke-width="1.5px"></line></g></g><g><g><line x1="23.967447916666664" y1="0" x2="23.967447916666664" y2="176" fill="rgb(0, 0, 0)" stroke="rgb(153, 153, 153)" stroke-width="1.5px"></line></g></g><g><g><g><g><g><path stroke="rgb(255, 112, 67)" stroke-width="2px" d="M23.967447916666664,154.88L24.207122395833334,159.28L24.446796875,155.23918367346937L24.686471354166667,158.30941176470589L24.926145833333333,159.87541984732823L25.1658203125,157.77946294307196L25.405494791666666,158.0348263056704L25.645169270833335,155.3192851191468L25.884843749999998,156.56411609968129L26.124518229166668,158.7195024568911L26.36419270833333,160.00436291003234L26.6038671875,160.7722893547396L26.843541666666667,161.231973992884L27.083216145833333,161.50740023119977L27.322890625,161.67251777450943L27.56256510416667,161.77153859956871L27.802239583333332,160.42269484555254L28.041914062500002,161.02167774000833L28.281588541666665,159.9729427383162L28.521263020833334,157.93569115784413L28.7609375,155.30535699319574L29.000611979166667,157.95124902159915L29.240286458333333,158.1307508305395L29.4799609375,158.2384510086482L29.719635416666666,158.30307078890485L29.959309895833336,155.52583773589078L30.198984375,155.2675023771307L30.43865885416667,156.52050219573837L30.678333333333335,157.27230159444844L30.9180078125,156.31538074511883L31.157682291666667,157.1492285576765L31.397356770833333,159.0575372864817L31.63703125,155.97852222486L31.87670572916667,152.72311324164468L32.11638020833333,149.36186788720462L32.3560546875,150.1611207405666L32.595729166666665,146.41667242116688L32.83540364583333,142.76200343912961L33.075078125000005,144.7932020680031L33.314752604166664,146.011921242431L33.55442708333334,142.51915274265724L33.794101562499996,141.8314916452634L34.03377604166667,142.82689498744546L34.273450520833336,144.83213699281467L34.513125,144.6272821956675L34.75279947916667,150.1363693177441L34.992473958333335,144.99382159045402L35.2321484375,147.5402929543296L35.47182291666667,150.47617577263728L35.711497395833334,150.82970546358524L35.951171875,153.85782327816582L36.190846354166666,151.45069396689252L36.43052083333334,147.19041638012806L36.6701953125,134.77824982806385L36.909869791666665,141.41094989684245L37.14954427083334,135.53456993810326L37.38921875,141.8647419628634L37.628893229166664,134.39884517771702L37.86856770833333,110.20730710662824L38.108242187500004,78.79638426397541L38.34791666666666,103.59783055838598L38.58759114583333,94.54269833503142L38.827265625,110.22961900101903L39.06694010416667,91.48177140061128L39.30661458333333,81.64106284036674L39.5462890625,64.47263770421999L39.78596354166667,52.76358262253197L40.025638020833334,47.14614957351918L40.2653125,36.73568974411149L40.50498697916667,64.2814138464669L40.74466145833333,48.42484830788015L40.9843359375,37.50290898472808L41.224010416666665,30.949745390836824L41.46368489583333,31.24184723450213L41.703359375,62.39310834070127L41.94303385416667,55.73986500442075L42.18270833333333,43.29991900265246L42.4223828125,38.65195140159147L42.66205729166667,30.231170840954892L42.90173177083334,25.178702504572918L43.141406249999996,22.147221502743765L43.38108072916667,44.26433290164626L43.620755208333335,49.08659974098775L43.8604296875,36.491959844592635L44.10010416666666,33.159175906755586L44.339778645833334,28.34350554405335L44.579453125,28.270103326432007L44.81912760416667,36.674061995859205L45.05880208333333,37.49243719751552L45.2984765625,37.98346231850932L45.538151041666666,31.238077391105605L45.77782552083334,28.59884643466336L46.0175,25.607307860798016L46.257174479166665,49.15638471647882L46.49684895833333,43.573830829887285L46.736523437500004,37.40829849793237L46.97619791666666,50.60497909875943L47.21587239583333,45.85098745925565L47.455546875,33.1425924755534L47.69522135416667,52.26955548533205L47.93489583333333,39.80973329119924L48.1745703125,33.74183997471953L48.41424479166667,32.917103984831726L48.653919270833335,29.60626239089902L48.89359375,26.21175743453943L49.13326822916667,34.031054460723645L49.37294270833333,28.86663267643419L49.6126171875,25.76797960586052L49.852291666666666,32.356787763516294L50.09196614583333,26.4540726581098L50.331640625,25.72844359486588L50.57131510416667,22.477066156919527L50.81098958333333,19.11823969415172L51.0506640625,24.142943816491034L51.29033854166667,25.749766289894602L51.53001302083334,21.081859773936785L51.769687499999996,25.321115864362074L52.00936197916667,25.048669518617245L52.249036458333336,20.661201711170342L52.4887109375,25.068721026702214L52.72838541666666,22.08123261602131L52.968059895833335,18.880739569612796L53.207734375,21.184443741767673L53.44740885416666,18.342666245060606L53.687083333333334,19.45359974703635L53.9267578125,17.304159848221822L54.166432291666666,18.830495908933067L54.40610677083334,19.746297545359855L54.64578125,27.33577852721593L54.885455729166665,30.481467116329544L55.12513020833334,28.144880269797735L55.3648046875,81.65492816187863L55.604479166666664,64.48095689712719L55.84415364583333,58.40057413827631L56.083828125000004,44.89634448296577L56.32350260416666,33.977806689779484L56.56317708333333,30.242684013867695L56.8028515625,42.081610408320614L57.04252604166667,30.880966244992358L57.28220052083333,29.792579746995422L57.521875,38.99554784819727L57.76154947916667,30.437328708918336L58.001223958333334,26.710397225350988L58.2408984375,34.330238335210595L58.48057291666667,27.638143001126373L58.72024739583333,23.622885800675807L58.959921875,39.51773148040551L59.199596354166665,30.750638888243287L59.43927083333333,28.306383332945963L59.6789453125,35.28782999976759L59.91861979166667,26.804697999860547L60.15829427083333,35.79481879991633L60.39796875,27.108891279949795L60.63764322916667,38.793334767969895L60.87731770833334,31.724000860781935L61.116992187499996,24.666400516469142L61.35666666666667,21.83984030988149L61.596341145833335,21.551904185928887L61.836015625,24.19514251155733L62.07569010416666,20.149085506934405L62.315364583333334,24.761451304160634L62.5550390625,24.71287078249638L62.79471354166667,20.459722469497834L63.03438802083333,29.171833481698705L63.2740625,23.135100089019208L63.513736979166666,19.513060053411543L63.75341145833334,18.74783603204692L63.9930859375,21.104701619228166L64.23276041666666,33.7828209715369L64.47243489583333,25.901692582922134L64.712109375,39.47701554975329L64.95178385416666,29.318209329851975L65.19145833333333,27.446925597911175L65.4311328125,23.508155358746716L65.67080729166666,19.736893215248017L65.91048177083333,20.29013592914881L66.15015625000001,22.030081557489282L66.38983072916666,20.258048934493566L66.62950520833333,19.194829360696154L66.86917968750001,19.964897616417666L67.10885416666667,17.610938569850596L67.34852864583333,17.606563141910353L67.58820312499999,19.011937885146217L67.82787760416667,17.03916273108773L68.06755208333334,17.26349763865265L68.30722656249999,17.39809858319159L68.54690104166667,16.070859149914952L68.78657552083334,20.90651548994896L69.02625,23.807909293969367L69.26592447916667,21.324745576381623L69.50559895833334,22.650847345828957L69.7452734375,23.446508407497376L69.98494791666667,19.699905044498443L70.22462239583334,21.675943026699066L70.464296875,21.453565816019413L70.70397135416667,21.320139489611655L70.94364583333333,24.056083693766993L71.1833203125,24.289650216260192L71.42299479166667,21.61379012975611L71.66266927083333,22.824274077853673L71.90234375,19.32656444671221L72.14201822916667,17.227938668027313L72.38169270833333,18.784763200816393L72.6213671875,22.53485792048982L72.86104166666668,21.968914752293895L73.10071614583333,21.629348851376342L73.340390625,21.425609310825784L73.58006510416668,24.11936558649549L73.81973958333333,20.103619351897287L74.0594140625,21.918171611138384L74.29908854166668,21.598902966683028L74.53876302083333,18.591341780009817L74.7784375,16.786805068005897L75.01811197916666,18.520083040803527L75.25778645833333,20.968049824482133L75.49746093750001,23.84482989468926L75.73713541666666,22.75489793681357L75.97680989583333,22.100938762088113L76.21648437500001,18.892563257252878L76.45615885416666,24.007537954351722L76.69583333333333,24.26052277261104L76.9355078125,20.188313663566632L77.17518229166666,19.15298819813998L77.41485677083334,18.531792918883983L77.65453125,26.607075751330388L77.89420572916666,25.82024545079824L78.13388020833334,23.94014727047894L78.3735546875,24.220088362287356L78.61322916666666,34.244053017372416L78.85290364583334,34.62643181042344L79.092578125,33.447859086254084L79.33225260416667,28.516715451752432L79.57192708333334,25.558029271051467L79.8116015625,35.04681756263088L80.05127604166667,37.92409053757852L80.29095052083333,32.61045432254711L80.530625,39.278272593528285L80.77029947916667,30.60696355611696L81.00997395833333,38.07617813367019L81.2496484375,31.293706880202116L81.48932291666667,25.816224128121263L81.72899739583333,21.12173447687276L81.968671875,28.16104068612366L82.20834635416666,30.976624411674216L82.44802083333333,24.217974647004525L82.6876953125,22.97878478820271L82.92736979166666,32.091270872921605L83.16704427083334,36.15076252375298L83.40671875,37.17845751425177L83.64639322916666,30.755074508551058L83.88606770833334,28.309044705130646L84.1257421875,40.92142682307836L84.36541666666666,35.81685609384704L84.60509114583334,39.7941136563082L84.844765625,40.772468193784924L85.08444010416667,42.76748091627095L85.32411458333334,34.10848854976257L85.56378906249999,28.913093129857536L85.80346354166667,38.46785587791453L86.04313802083334,38.56871352674872L86.28281249999999,37.221228116049225L86.52248697916667,44.860736869629555L86.76216145833334,45.22044212177772L87.0018359375,48.25226527306663L87.24151041666667,48.66335916383998L87.48118489583332,43.278015498303986L87.720859375,55.534809298982395L87.96053385416667,48.80888557938943L88.20020833333332,43.36533134763366L88.4398828125,44.3231988085802L88.67955729166667,40.673919285148116L88.91923177083332,44.11635157108888L89.15890625,41.957810942653325L89.39858072916667,43.478686565591985L89.63825520833333,40.16721193935521L89.8779296875,40.9963271636131L90.11760416666667,47.12579629816787L90.35727864583333,49.39547777890071L90.596953125,54.98128666734043L90.83662760416668,49.88477200040427L91.07630208333333,39.786863200242536L91.3159765625,39.36011792014554L91.55565104166668,40.51207075208731L91.79532552083333,38.38724245125238L92.035,37.11234547075144L92.27467447916668,40.57140728245088L92.51434895833333,39.830844369470526L92.7540234375,42.20250662168232L92.99369791666666,45.03350397300937L93.23337239583333,49.548102383805634L93.47304687500001,49.44086143028337L93.71272135416666,36.70451685817001L93.95239583333333,36.10271011490201L94.19207031250001,32.92562606894121L94.43174479166666,31.019375641364732L94.67141927083333,24.24362538481882L94.91109375,22.994175230891287L95.15076822916666,27.87650513853478L95.39044270833334,27.98990308312085L95.6301171875,33.68994184987254L95.86979166666666,38.51796510992353L96.10946614583334,38.598779065954126L96.349140625,41.46326743957246L96.58881510416666,43.18196046374349L96.82848958333334,37.1731762782461L97.0681640625,40.60790576694764L97.30783854166667,39.85274346016858L97.54751302083334,35.17564607610114L97.7871875,35.18538764566069L98.02686197916667,35.191232587396414L98.26653645833333,33.78673955243784L98.5062109375,32.94404373146273L98.74588541666667,28.21442623887763L98.98555989583333,36.640655743326576L99.225234375,38.880393445995935L99.46490885416667,34.592236067597554L99.70458333333333,36.243341640558526L99.9442578125,31.602004984335117L100.18393229166666,28.81720299060106L100.42360677083333,35.59432179436064L100.66328125,28.396593076616384L100.90295572916666,26.89395584596983L101.14263020833334,23.17637350758189L101.3823046875,23.761824104549135L101.62197916666666,26.929094462729484L101.86165364583334,28.829456677637673L102.101328125,27.15367400658262L102.34100260416666,34.596204403949564L102.58067708333334,29.205722642369743L102.8203515625,24.563433585421844L103.06002604166667,24.5940601512531L103.29970052083334,23.20443609075187L103.53937499999999,26.59466165445111L103.77904947916667,25.812796992670656L104.01872395833334,29.56767819560239L104.25839843749999,30.41260691736143L104.49807291666667,29.511564150416852L104.73774739583334,28.970938490250106L104.977421875,24.422563094150085L105.21709635416667,23.10153785649005L105.45677083333332,22.308922713894038L105.6964453125,23.241353628336416L105.93611979166667,22.392812177001844L106.17579427083332,21.88368730620111L106.41546875,27.210212383720673L106.65514322916667,23.366127430232417L106.89481770833332,22.467676458139465L107.1344921875,20.520605874883675L107.37416666666667,24.984363524930203L107.61384114583333,22.03061811495813L107.853515625,24.482370868974876L108.09319010416667,25.95342252138493L108.33286458333333,28.244053512830966L108.5725390625,28.21043210769856L108.81221354166668,33.822259264619156L109.05188802083333,25.925355558771507L109.2915625,22.595213335262876L109.53123697916668,29.04512800115772L109.77091145833333,31.507076800694655L110.0105859375,30.1682460804168L110.25026041666668,25.140947648250094L110.48993489583333,27.75656858895006L110.729609375,32.141941153370034L110.96928385416666,30.549164692022025L111.20895833333333,29.5934988152132L111.44863281250001,30.42809928912793L111.68830729166666,25.296859573476766L111.92798177083333,27.85011574408606L112.16765625000001,23.750069446451622L112.40733072916666,22.698041667870967L112.64700520833333,19.250825000722593L112.8866796875,21.40649500043355L113.12635416666666,22.699897000260137L113.36602864583334,22.06793820015607L113.605703125,31.544762920093653L113.84537760416666,31.59885775205617L114.08505208333334,30.22331465123372L114.3247265625,27.98998879074023L114.56440104166666,28.057993274444133L114.80407552083334,26.690795964666506L115.04375,27.27847757879988L115.28342447916667,26.223086547279927L115.52309895833334,24.18185192836796L115.7627734375,20.141111157020767L116.00244791666667,17.716666694212456L116.24212239583333,20.48600001652747L116.481796875,24.96360000991649L116.72147135416667,22.018160005949888L116.96114583333333,21.65889600356992L117.2008203125,18.62733760214197L117.44049479166667,16.808402561285156L117.68016927083333,15.717041536771118L117.91984375,22.10222492206268L118.15951822916666,24.525334953237603L118.39919270833333,21.75520097194257L118.6388671875,20.093120583165536L118.87854166666666,19.09587234989932L119.11821614583334,17.089523409939595L119.357890625,20.109714045963745L119.59756510416666,21.921828427578248L119.83723958333334,23.009097056546942L120.0769140625,26.477458233928182L120.31658854166666,27.1504749403569L120.55626302083334,37.410284964214135L120.7959375,37.93417097852847L121.03561197916667,32.61650258711708L121.27528645833334,25.201901552270257L121.51496093749999,26.38514093136215L121.75463541666667,22.871084558817287L121.99430989583334,23.578650735290374L122.23398437499999,22.595190441174225L122.47365885416667,22.005114264704545L122.71333333333334,24.467068558822714L122.9530078125,21.720241135293627L123.19268229166667,24.29614468117618L123.43235677083332,21.617686808705727L123.67203125,18.60261208522342L123.91170572916667,16.793567251134064L124.15138020833332,15.708140350680429L124.3910546875,16.464884210408258L124.63072916666667,15.510930526244962L124.87040364583332,16.34655831574699L125.110078125,16.847934989448195L125.34975260416667,15.740760993668914L125.58942708333333,20.70845659620136L125.8291015625,25.097073957720795L126.06877604166667,24.91424437463246L126.30845052083333,23.39654662477948L126.548125,19.669927974867708L126.78779947916668,17.433956784920614L127.02747395833333,16.09237407095238L127.2671484375,18.10342444257143L127.50682291666668,19.310054665542857L127.74649739583333,21.44203279932573L127.986171875,24.12921967959543L128.22584635416666,28.557531807757247L128.46552083333333,28.39851908465436L128.7051953125,29.711111450792593L128.94486979166666,29.090666870475566L129.18454427083333,31.534400122285327L129.42421875,31.5926400733712L129.66389322916666,34.44358404402272L129.90356770833333,31.930150426413633L130.1432421875,30.42209025584816L130.38291666666666,32.3332541535089L130.62259114583333,33.47995249210536L130.862265625,32.759971495263216L131.10194010416666,29.511982897157935L131.34161458333332,31.78718973829477L131.5812890625,35.96831384297686L131.82096354166666,35.66098830578612L132.06063802083332,32.66059298347167L132.30031250000002,30.860355790083016L132.53998697916666,28.3722134740498L132.77966145833332,29.69532808442989L133.01933593750002,24.85719685065792L133.25901041666665,24.77031811039476L133.49868489583332,26.126190866236843L133.73835937500002,26.9397145197421L133.97803385416665,33.05982871184528L134.21770833333335,31.099897227107164L134.45738281250001,32.73993833626429L134.69705729166665,28.091963001758575L134.93673177083335,25.303177801055153L135.17640624999999,27.853906680633095L135.41608072916665,27.976344008379844L135.65575520833335,32.27380640502791L135.89542968749998,32.03628384301675L136.13510416666668,31.893770305810044L136.37477864583335,28.992262183486048L136.61445312499998,24.43535731009161L136.85412760416668,31.557214386054955L137.09380208333334,31.606328631632998L137.33347656249998,27.411797178979786L137.57315104166668,26.303078307387896L137.81282552083334,31.269846984432718L138.0525,30.025908190659628L138.29217447916668,27.87154491439577L138.53184895833334,27.986926948637446L138.7715234375,23.832156169182483L139.01119791666667,24.155293701509486L139.25087239583334,22.941176220905707L139.490546875,22.212705732543434L139.73022135416667,24.591623439526046L139.96989583333334,26.018974063715643L140.2095703125,22.65138443822938L140.44924479166667,24.854830662937626L140.68891927083334,21.952898397762574L140.92859375,28.65973903865755L141.16826822916667,28.45984342319452L141.40794270833334,25.52390605391671L141.6476171875,27.986343632350035L141.88729166666667,29.463806179410025L142.12696614583334,30.35028370764601L142.366640625,28.0661702245876L142.60631510416667,23.87970213475257L142.84598958333333,25.591821280851555L143.0856640625,25.211092768510934L143.32533854166667,26.390655661106557L143.56501302083333,24.28239339666393L143.8046875,27.24143603799834L144.04436197916667,26.20086162279899L144.28403645833333,24.168516973679388L144.5237109375,25.765110184207636L144.76338541666667,22.49906611052458L145.00305989583333,20.539439666314742L145.242734375,19.363663799788846L145.48240885416666,20.066198279873312L145.72208333333336,27.527718967923978L145.9617578125,24.964631380754394L146.20143229166666,30.46677882845261L146.44110677083333,26.72806729707157L146.68078125,30.11684037824294L146.92045572916666,23.702104226945757L147.16013020833336,21.26126253616745L147.3998046875,19.796757521700464L147.63947916666666,24.55005451302028L147.87915364583333,27.402032707812182L148.118828125,24.889219624687293L148.3585026041667,23.38153177481238L148.59817708333335,23.884919064887445L148.8378515625,27.00295143893247L149.07752604166666,28.873770863359468L149.31720052083332,25.772262518015683L149.556875,26.727357510809433L149.79654947916669,25.89241450648565L150.03622395833332,21.167448703891402L150.2758984375,25.37246922233483L150.51557291666666,23.671481533400907L150.75524739583332,21.242888920040546L150.99492187500002,21.193733352024317L151.23459635416668,21.164240011214577L151.47427083333332,21.146544006728746L151.7139453125,19.72792640403727L151.95361979166665,17.468755842422343L152.19329427083335,16.11325350545343L152.43296875000001,19.523952103272055L152.67264322916668,22.978371261963225L152.91231770833332,23.64302275717791L153.15199218749999,22.633813654306735L153.39166666666665,26.252288192584068L153.63134114583335,21.383372915550424L153.871015625,19.870023749330258L154.11069010416668,21.778014249598158L154.35036458333332,22.92280854975889L154.59003906249998,23.609685129855336L154.82971354166668,29.653811077913197L155.06938802083334,26.240286646747915L155.3090625,24.19217198804875L155.54873697916668,22.96330319282925L155.78841145833331,23.633981915697547L156.0280859375,21.220389149418516L156.26776041666668,22.58823348965113L156.50743489583334,26.224940093790664L156.747109375,22.774964056274392L156.98678385416665,22.112978433764635L157.2264583333333,20.30778706025879L157.4661328125,22.040672236155295L157.70580729166667,23.08040334169317L157.94548177083334,23.70424200501592L158.18515625,21.262545203009548L158.42483072916664,25.429527121805727L158.66450520833334,26.521716273083427L158.9041796875,24.36102976385005L159.14385416666667,23.064617858310015L159.38352864583334,22.286770714986037L159.623203125,21.820062428991612L159.86287760416664,22.94803745739497L160.10255208333334,25.03282247443697L160.3422265625,24.875693484662182L160.58190104166667,24.781416090797336L160.82157552083333,23.316849654478396L161.06125,25.254109792687025L161.30092447916667,22.192465875612214L161.54059895833333,23.171479525367346L161.7802734375,20.9428877152204L162.01994791666667,18.19773262913224L162.25962239583333,16.55063957747935L162.499296875,16.9703837464876L162.73897135416667,15.814230247892565L162.97864583333333,15.120538148735529L163.2183203125,14.704322889241299L163.45799479166666,18.678593733544776L163.69766927083336,19.65515624012685L163.93734375,18.833093744076137L164.17701822916666,16.93185624644565L164.41669270833333,17.199113747867397L164.6563671875,18.767468248720448L164.89604166666666,18.30048094923225L165.13571614583336,20.836288569539356L165.375390625,20.9497731417236L165.61506510416666,18.20186388503418L165.85473958333333,17.9611183310205L166.0944140625,16.408670998612298L166.3340885416667,19.701202599167374L166.57376302083335,21.676721559500436L166.8134375,18.63803293570026L167.05311197916666,21.038819761420136L167.29278645833332,19.663291856852098L167.5324609375,18.83797511411127L167.77213541666669,21.158785068466763L168.01180989583332,22.551271041080035L168.251484375,23.386762624648036L168.49115885416666,22.480057574788816L168.73083333333332,38.8320345448733L168.97050781250002,31.74722072692397L169.21018229166668,24.680332436154377L169.44985677083332,21.848199461692648L169.68953125,20.148919677015577L169.92920572916665,21.945351806209352L170.16888020833335,24.43121108372561L170.40855468750001,20.290726650235364L170.64822916666668,20.62243599014122L170.88790364583332,18.00546159408473L171.12757812499999,22.067276956450836L171.36725260416665,18.87236617387049L171.60692708333335,21.1794197043223L171.8466015625,22.563651822593364L172.08627604166668,19.170191093556042L172.32595052083332,22.7661146561336L172.56562499999998,22.10766879368015L172.80529947916668,24.528601276208114L173.04497395833334,28.797160765724847L173.2846484375,29.950296459434917L173.52432291666668,27.826177875660953L173.76399739583331,30.77570672539656L174.003671875,36.76942403523794L174.24334635416668,29.101654421142765L174.48302083333334,25.90899265268565L174.7226953125,25.401395591611397L174.96236979166665,26.504837354966845L175.2020442708333,28.574902412980094L175.44171875,34.04094144778804L175.68139322916667,35.91256486867283L175.92106770833334,34.21953892120369L176.1607421875,36.019723352722224L176.40041666666664,31.467834011633343L176.64009114583334,32.96070040698L176.879765625,28.224420244188003L177.11944010416667,31.01465214651278L177.35911458333334,31.28079128790769L177.5987890625,28.62447477274462L177.83846354166664,29.846684863646775L178.07813802083334,31.988010918188078L178.3178125,33.27280655091285L178.55748697916667,39.675683930547706L178.79716145833333,30.845410358328625L179.0368359375,28.363246214997154L179.27651041666667,25.465947728998287L179.51618489583333,27.951568637398992L179.755859375,30.850941182439385L179.99553385416667,28.366564709463635L180.23520833333333,28.283938825678177L180.4748828125,28.23436329540693L180.71455729166667,26.796617977244125L180.95423177083333,31.565970786346476L181.19390625,28.795582471807904L181.43358072916666,24.31734948308474L181.67325520833336,30.078409689850847L181.9129296875,32.12704581391051L182.15260416666666,30.540227488346318L182.39227864583333,28.180136493007776L182.631953125,25.35608189580467L182.87162760416666,23.661649137482797L183.11130208333336,26.868989482489695L183.3509765625,30.20139368949381L183.59065104166666,29.384836213696282L183.83032552083333,30.302901728217762L184.07,29.44574103693066L184.3096744791667,26.115444622158403L184.54934895833335,28.34126677329504L184.7890234375,29.676760063977042L185.02869791666666,31.88605603838621L185.26837239583332,36.02763362303172L185.508046875,28.656580173819016L185.74772135416669,31.273948104291435L185.98739583333332,28.620368862574846L186.2270703125,31.252221317544922L186.46674479166666,32.83133279052694L186.70641927083332,28.146799674316163L186.94609375000002,25.336079804589698L187.18576822916668,25.0576478827538L187.42544270833332,22.074588729652277L187.6651171875,24.50875323779139L187.90479166666665,25.96925194267482L188.14446614583335,22.621551165604906L188.38414062500001,22.020930699362957L188.62381510416668,20.252558419617742L188.86348958333332,17.783535051770663L189.10316406249999,17.710121031062386L189.34283854166665,19.074072618637445L189.58251302083335,19.89244357118246L189.8221875,20.38346614270946L190.06186197916668,19.270079685625692L190.30153645833332,18.602047811375414L190.54121093749998,16.79322868682526L190.78088541666668,17.115937212095155L191.02055989583334,21.53356232725708L191.260234375,18.55213739635424L191.49990885416668,23.803282437812534L191.73958333333331,25.545969462687538L191.9792578125,25.183581677612523L192.21893229166668,29.190149006567523L192.45860677083334,28.7780894039405L192.69828125,27.122853642364305L192.93795572916665,26.129712185418583L193.1776302083333,25.533827311251148L193.4173046875,20.952296386750678L193.65697916666667,23.83537783205042L193.89665364583334,28.38122669923024L194.136328125,26.884736019538142L194.37600260416664,33.02684161172289L194.61567708333334,29.672104967033732L194.8553515625,30.47526298022024L195.09502604166667,35.18115778813216L195.33470052083334,32.37269467287928L195.574375,29.279616803727563L195.81404947916664,27.423770082236544L196.05372395833334,23.494262049341927L196.2933984375,21.13655722960516L196.53307291666667,22.537934337763083L196.77274739583333,21.970760602657855L197.012421875,23.03845636159473L197.25209635416667,20.86307381695682L197.49177083333333,19.55784429017409L197.7314453125,18.77470657410444L197.97111979166667,18.30482394446266L198.21079427083333,16.614894366677618L198.45046875,18.41693662000657L198.69014322916667,18.09016197200394L198.92981770833333,19.302097183202356L199.1694921875,18.62125830992143L199.40916666666666,18.212754985952877L199.64884114583336,16.55965299157171L199.888515625,19.791791794943016L200.12819010416666,24.54707507696581L200.36786458333333,20.36024504617948L200.6075390625,23.480147027707687L200.84721354166666,21.12808821662463L201.08688802083336,23.940852929974756L201.3265625,25.62851175798488L201.56623697916666,23.825107054790912L201.80591145833333,24.151064232874553L202.0455859375,25.754638539724734L202.2852604166667,28.12478312383484L202.52493489583335,32.3628698743009L202.764609375,27.865721924580562L203.00428385416666,30.79943315474833L203.24395833333332,24.111659892848984L203.4836328125,28.546995935709397L203.72330729166669,28.39219756142564L203.96298177083332,28.2993185368554L204.20265625,29.651591122113235L204.44233072916666,29.054954673267943L204.68200520833332,30.104972803960777L204.92167968750002,25.102983682376465L205.16135416666668,20.69379020942587L205.40102864583332,20.864274125655527L205.640703125,19.558564475393315L205.88037760416665,20.18313868523599L206.12005208333335,20.5578832111416L206.35972656250001,20.782729926684976L206.59940104166668,23.733637956010988L206.83907552083332,22.688182773606584L207.07874999999999,23.46890966416396L207.31842447916665,26.753345798498387L207.55809895833335,25.90800747909902L207.7977734375,28.21680448745942L208.03744791666668,28.194082692475646L208.27712239583332,29.588449615485374L208.51679687499998,24.793069769291243L208.75647135416668,21.915841861574755L208.99614583333334,18.781505116944853L209.2358203125,16.90090307016692L209.47549479166668,19.996541842100136L209.71516927083331,20.44592510526008L209.95484375,22.123555063156054L210.19451822916668,27.35413303789362L210.43419270833334,27.67647982273617L210.6738671875,26.461887893641702L210.91354166666665,27.141132736185007L211.1532161458333,30.364679641711014L211.392890625,23.850807785026603L211.63256510416667,22.758484671015957L211.87223958333334,20.69509080260957L212.1119140625,19.45705448156576L212.35158854166664,22.938232688939458L212.59126302083334,20.802939613363673L212.8309375,22.3377637680182L213.07061197916667,23.258658260810925L213.31028645833334,19.587194956486552L213.5499609375,20.200316973891937L213.78963541666664,19.16019018433515L214.02930989583334,21.352114110601086L214.268984375,19.85126846636067L214.50865885416667,21.766761079816376L214.74833333333333,20.10005664788983L214.9880078125,23.324033988733895L215.22768229166667,22.442420393240326L215.46735677083333,21.913452235944224L215.70703125,30.044071341566536L215.94670572916667,26.474442804939926L216.18638020833333,29.964665682963968L216.4260546875,26.426799409778383L216.66572916666667,29.93607964586704L216.90540364583333,29.22564778752024L217.145078125,28.799388672512116L217.38475260416666,29.95163320350729L217.62442708333336,25.01097992210436L217.8641015625,23.454587953262635L218.10377604166666,22.520752771957575L218.34345052083333,21.960451663174524L218.583125,24.440270997904733L218.82279947916666,21.704162598742855L219.06247395833336,29.918497559245694L219.3021484375,29.215098535547433L219.54182291666666,31.609059121328446L219.78149739583333,38.67743547279707L220.021171875,33.06246128367826L220.2608463541667,28.285476770206948L220.50052083333335,28.23528606212416L220.7401953125,28.205171637274496L220.97986979166666,25.3711029823647L221.21954427083332,25.078661789418813L221.45921875,22.087197073651296L221.69889322916669,25.924318244190765L221.93856770833332,28.226590946514477L222.1782421875,28.199954567908684L222.41791666666666,29.591972740745234L222.65759114583332,30.427183644447133L222.89726562500002,35.152310186668295L223.13694010416668,30.94738611200097L223.37661458333332,28.4244316672006L223.6162890625,26.91065900032033L223.85596354166665,30.226395400192217L224.09563802083335,30.807837240115315L224.33531250000001,24.116702344069218L224.57498697916668,25.734021406441517L224.81466145833332,25.296412843864903L225.05433593749999,23.625847706318957L225.29401041666665,24.031508623791368L225.53368489583335,24.274905174274835L225.773359375,25.828943104564875L226.01303385416668,25.353365862738926L226.25270833333332,20.84401951764336L226.49238281249998,18.138411710586006L226.73205729166668,19.331047026351605L226.97173177083334,22.862628215810965L227.21140625,20.757576929486582L227.45108072916668,19.49454615769195L227.69075520833331,20.144727694615167L227.9304296875,21.942836616769107L228.17010416666668,21.613701970061467L228.40977864583334,25.64022118203689L228.649453125,22.424132709222143L228.88912760416665,23.310479625533286L229.1288020833333,25.25028777531997L229.3684765625,29.230172665191983L229.60815104166667,30.210103599115172L229.84782552083334,36.43006215946912L230.0875,37.34603729568146L230.32717447916664,30.855622377408874L230.56684895833334,31.18537342644532L230.8065234375,29.975224055867194L231.04619791666667,32.06513443352031L231.28587239583334,30.503080660112204L231.525546875,26.749848396067307L231.76522135416664,27.31390903764037L232.00489583333334,24.836345422584223L232.2445703125,24.757807253550546L232.48424479166667,24.710684352130336L232.72391927083333,24.6824106112782L232.96359375,21.84944636676692L233.20326822916667,21.557667820060146L233.44294270833333,19.974600692036084L233.6826171875,20.43276041522165L233.92229166666667,22.115656249132996L234.16196614583333,18.901393749479794L234.401640625,19.788836249687876L234.64131510416667,17.505301749812737L234.88098958333333,16.135181049887635L235.1206640625,20.945108629932584L235.36033854166666,18.19906517795955L235.60001302083336,19.36743910677572L235.8396875,18.660463464065433L236.07936197916666,23.868278078439253L236.31903645833333,22.768966847063552L236.5587109375,22.109380108238142L236.79838541666666,27.34562806494289L237.03805989583336,27.67137683896572L237.277734375,23.64282610337945L237.51740885416666,21.225695662027682L237.75708333333333,21.18341739721661L237.9967578125,21.158050438329962L238.2364322916667,33.81483026299797L238.47610677083335,31.552898157798793L238.71578125,33.01173889467927L238.95545572916666,32.47904333680758L239.19513020833332,39.19942600208452L239.4348046875,39.00765560125075L239.67447916666669,40.300593360750455L239.91415364583332,38.26035601645027L240.153828125,34.22021360987014L240.39350260416666,34.61212816592209L240.63317708333332,37.663276899553274L240.87285156250002,32.45396613973194L241.11252604166668,29.328379683839167L241.35220052083332,28.861027810303515L241.591875,32.804616686182115L241.83154947916665,32.35477001170927L242.07122395833335,36.30886200702554L242.31089843750001,28.825317204215338L242.55057291666668,28.55919032252919L242.79024739583332,25.58351419351753L243.02992187499999,25.206108516110504L243.26959635416665,32.01966510966628L243.50927083333335,34.699799065799795L243.7489453125,33.49187943947987L243.98861979166668,29.951127663687934L244.22829427083332,29.234676598212737L244.46796874999998,25.98880595892764L244.70764322916668,31.081283575356597L244.94731770833334,27.096770145213952L245.1869921875,34.562062087128375L245.42666666666668,39.04123725227703L245.66634114583331,40.320742351366206L245.906015625,38.27244541081973L246.14569010416668,41.267467246491826L246.38536458333334,34.616480347895106L246.6250390625,32.03388820873705L246.86471354166665,34.70833292524224L247.1043880208333,34.90499975514534L247.3440625,36.43099985308721L247.58373697916667,33.12259991185233L247.82341145833334,33.95355994711139L248.0630859375,33.04413596826684L248.30276041666664,35.3144815809601L248.54243489583334,31.04468894857604L248.782109375,25.66681336914563L249.02178385416667,28.07208802148738L249.26145833333334,32.33125281289243L249.5011328125,33.47875168773546L249.74080729166664,31.35125101264128L249.98048177083334,30.07475060758478L250.22015625,26.49285036455086L250.45983072916667,27.159710218730524L250.69950520833333,27.559826131238303L250.9391796875,34.83989567874297L251.17885416666667,33.575937407245775L251.41852864583333,34.225562444347474L251.658203125,31.799337466608502L251.89787760416667,30.343602479965078L252.13755208333333,30.87816148797907L252.3772265625,29.790896892787426L252.61690104166667,27.730538135672447L252.85657552083333,26.49432288140345L253.09625,24.344593728842092L253.33592447916666,28.686756237305246L253.57559895833336,24.25205374238316L253.8152734375,24.407232245429903L254.05494791666666,27.316339347257937L254.29462239583333,24.837803608354754L254.534296875,28.982682165012875L254.77397135416666,31.46960929900771L255.01364583333336,32.96176557940464L255.2533203125,33.857059347642775L255.49299479166666,38.61823560858565L255.73266927083333,38.658941365151406L255.97234375,30.23536481909083L256.2120182291667,32.22121889145451L256.4516927083333,33.412731334872696L256.69136718749996,39.75963880092363L256.93104166666666,35.11978328055415L257.17071614583335,36.55986996833249L257.410390625,30.383921980999514L257.6500651041667,28.086353188599688L257.8897395833333,29.52381191315983L258.1294140625,30.386287147895885L258.36908854166666,39.35177228873753L258.60876302083335,34.87506337324252L258.8484375,32.189038023945514L259.0881119791667,27.76142281436732L259.3277864583333,34.96085368862039L259.5674609375,28.01651221317222L259.80713541666665,32.29790732790332L260.04680989583335,37.682744396741995L260.286484375,39.50564663804521L260.5261588541667,40.59938798282712L260.7658333333333,37.03163278969629L261.0055078125,29.258979673817755L261.24518229166665,27.41138780429065L261.48485677083335,36.158832682574385L261.72453125,37.18329960954462" style="fill: none;" fill="none"></path></g></g></g></g><g opacity="0.2"><g><g><g><path stroke="rgb(255, 112, 67)" stroke-width="2px" d="M23.967447916666664,154.88L24.207122395833334,161.92000000000002L24.446796875,151.35999999999999L24.686471354166667,161.92000000000002L24.926145833333333,161.92000000000002L25.1658203125,154.88L25.405494791666666,158.4L25.645169270833335,151.35999999999999L25.884843749999998,158.4L26.124518229166668,161.92000000000002L26.36419270833333,161.92000000000002L26.6038671875,161.92000000000002L26.843541666666667,161.92000000000002L27.083216145833333,161.92000000000002L27.322890625,161.92000000000002L27.56256510416667,161.92000000000002L27.802239583333332,158.4L28.041914062500002,161.92000000000002L28.281588541666665,158.4L28.521263020833334,154.88L28.7609375,151.35999999999999L29.000611979166667,161.92000000000002L29.240286458333333,158.4L29.4799609375,158.4L29.719635416666666,158.4L29.959309895833336,151.35999999999999L30.198984375,154.88L30.43865885416667,158.4L30.678333333333335,158.4L30.9180078125,154.88L31.157682291666667,158.4L31.397356770833333,161.92000000000002L31.63703125,151.35999999999999L31.87670572916667,147.84L32.11638020833333,144.32000000000002L32.3560546875,151.35999999999999L32.595729166666665,140.8L32.83540364583333,137.28L33.075078125000005,147.84L33.314752604166664,147.84L33.55442708333334,137.28L33.794101562499996,140.8L34.03377604166667,144.32000000000002L34.273450520833336,147.84L34.513125,144.32000000000002L34.75279947916667,158.4L34.992473958333335,137.28L35.2321484375,151.35999999999999L35.47182291666667,154.88L35.711497395833334,151.35999999999999L35.951171875,158.4L36.190846354166666,147.84L36.43052083333334,140.8L36.6701953125,116.15999999999998L36.909869791666665,151.35999999999999L37.14954427083334,126.72L37.38921875,151.35999999999999L37.628893229166664,123.19999999999999L37.86856770833333,73.92L38.108242187500004,31.680000000000007L38.34791666666666,140.8L38.58759114583333,80.96L38.827265625,133.76L39.06694010416667,63.36L39.30661458333333,66.88L39.5462890625,38.72L39.78596354166667,35.19999999999999L40.025638020833334,38.72L40.2653125,21.119999999999997L40.50498697916667,105.6L40.74466145833333,24.64L40.9843359375,21.119999999999997L41.224010416666665,21.119999999999997L41.46368489583333,31.680000000000007L41.703359375,109.12L41.94303385416667,45.760000000000005L42.18270833333333,24.64L42.4223828125,31.680000000000007L42.66205729166667,17.599999999999994L42.90173177083334,17.599999999999994L43.141406249999996,17.599999999999994L43.38108072916667,77.44L43.620755208333335,56.31999999999999L43.8604296875,17.599999999999994L44.10010416666666,28.160000000000004L44.339778645833334,21.119999999999997L44.579453125,28.160000000000004L44.81912760416667,49.28L45.05880208333333,38.72L45.2984765625,38.72L45.538151041666666,21.119999999999997L45.77782552083334,24.64L46.0175,21.119999999999997L46.257174479166665,84.47999999999999L46.49684895833333,35.19999999999999L46.736523437500004,28.160000000000004L46.97619791666666,70.4L47.21587239583333,38.72L47.455546875,14.079999999999993L47.69522135416667,80.96L47.93489583333333,21.119999999999997L48.1745703125,24.64L48.41424479166667,31.680000000000007L48.653919270833335,24.64L48.89359375,21.119999999999997L49.13326822916667,45.760000000000005L49.37294270833333,21.119999999999997L49.6126171875,21.119999999999997L49.852291666666666,42.239999999999995L50.09196614583333,17.599999999999994L50.331640625,24.64L50.57131510416667,17.599999999999994L50.81098958333333,14.079999999999993L51.0506640625,31.680000000000007L51.29033854166667,28.160000000000004L51.53001302083334,14.079999999999993L51.769687499999996,31.680000000000007L52.00936197916667,24.64L52.249036458333336,14.079999999999993L52.4887109375,31.680000000000007L52.72838541666666,17.599999999999994L52.968059895833335,14.079999999999993L53.207734375,24.64L53.44740885416666,14.079999999999993L53.687083333333334,21.119999999999997L53.9267578125,14.079999999999993L54.166432291666666,21.119999999999997L54.40610677083334,21.119999999999997L54.64578125,38.72L54.885455729166665,35.19999999999999L55.12513020833334,24.64L55.3648046875,161.92000000000002L55.604479166666664,38.72L55.84415364583333,49.28L56.083828125000004,24.64L56.32350260416666,17.599999999999994L56.56317708333333,24.64L56.8028515625,59.839999999999996L57.04252604166667,14.079999999999993L57.28220052083333,28.160000000000004L57.521875,52.80000000000001L57.76154947916667,17.599999999999994L58.001223958333334,21.119999999999997L58.2408984375,45.760000000000005L58.48057291666667,17.599999999999994L58.72024739583333,17.599999999999994L58.959921875,63.36L59.199596354166665,17.599999999999994L59.43927083333333,24.64L59.6789453125,45.760000000000005L59.91861979166667,14.079999999999993L60.15829427083333,49.28L60.39796875,14.079999999999993L60.63764322916667,56.31999999999999L60.87731770833334,21.119999999999997L61.116992187499996,14.079999999999993L61.35666666666667,17.599999999999994L61.596341145833335,21.119999999999997L61.836015625,28.160000000000004L62.07569010416666,14.079999999999993L62.315364583333334,31.680000000000007L62.5550390625,24.64L62.79471354166667,14.079999999999993L63.03438802083333,42.239999999999995L63.2740625,14.079999999999993L63.513736979166666,14.079999999999993L63.75341145833334,17.599999999999994L63.9930859375,24.64L64.23276041666666,52.80000000000001L64.47243489583333,14.079999999999993L64.712109375,59.839999999999996L64.95178385416666,14.079999999999993L65.19145833333333,24.64L65.4311328125,17.599999999999994L65.67080729166666,14.079999999999993L65.91048177083333,21.119999999999997L66.15015625000001,24.64L66.38983072916666,17.599999999999994L66.62950520833333,17.599999999999994L66.86917968750001,21.119999999999997L67.10885416666667,14.079999999999993L67.34852864583333,17.599999999999994L67.58820312499999,21.119999999999997L67.82787760416667,14.079999999999993L68.06755208333334,17.599999999999994L68.30722656249999,17.599999999999994L68.54690104166667,14.079999999999993L68.78657552083334,28.160000000000004L69.02625,28.160000000000004L69.26592447916667,17.599999999999994L69.50559895833334,24.64L69.7452734375,24.64L69.98494791666667,14.079999999999993L70.22462239583334,24.64L70.464296875,21.119999999999997L70.70397135416667,21.119999999999997L70.94364583333333,28.160000000000004L71.1833203125,24.64L71.42299479166667,17.599999999999994L71.66266927083333,24.64L71.90234375,14.079999999999993L72.14201822916667,14.079999999999993L72.38169270833333,21.119999999999997L72.6213671875,28.160000000000004L72.86104166666668,21.119999999999997L73.10071614583333,21.119999999999997L73.340390625,21.119999999999997L73.58006510416668,28.160000000000004L73.81973958333333,14.079999999999993L74.0594140625,24.64L74.29908854166668,21.119999999999997L74.53876302083333,14.079999999999993L74.7784375,14.079999999999993L75.01811197916666,21.119999999999997L75.25778645833333,24.64L75.49746093750001,28.160000000000004L75.73713541666666,21.119999999999997L75.97680989583333,21.119999999999997L76.21648437500001,14.079999999999993L76.45615885416666,31.680000000000007L76.69583333333333,24.64L76.9355078125,14.079999999999993L77.17518229166666,17.599999999999994L77.41485677083334,17.599999999999994L77.65453125,38.72L77.89420572916666,24.64L78.13388020833334,21.119999999999997L78.3735546875,24.64L78.61322916666666,49.28L78.85290364583334,35.19999999999999L79.092578125,31.680000000000007L79.33225260416667,21.119999999999997L79.57192708333334,21.119999999999997L79.8116015625,49.28L80.05127604166667,42.239999999999995L80.29095052083333,24.64L80.530625,49.28L80.77029947916667,17.599999999999994L81.00997395833333,49.28L81.2496484375,21.119999999999997L81.48932291666667,17.599999999999994L81.72899739583333,14.079999999999993L81.968671875,38.72L82.20834635416666,35.19999999999999L82.44802083333333,14.079999999999993L82.6876953125,21.119999999999997L82.92736979166666,45.760000000000005L83.16704427083334,42.239999999999995L83.40671875,38.72L83.64639322916666,21.119999999999997L83.88606770833334,24.64L84.1257421875,59.839999999999996L84.36541666666666,28.160000000000004L84.60509114583334,45.760000000000005L84.844765625,42.239999999999995L85.08444010416667,45.760000000000005L85.32411458333334,21.119999999999997L85.56378906249999,21.119999999999997L85.80346354166667,52.80000000000001L86.04313802083334,38.72L86.28281249999999,35.19999999999999L86.52248697916667,56.31999999999999L86.76216145833334,45.760000000000005L87.0018359375,52.80000000000001L87.24151041666667,49.28L87.48118489583332,35.19999999999999L87.720859375,73.92L87.96053385416667,38.72L88.20020833333332,35.19999999999999L88.4398828125,45.760000000000005L88.67955729166667,35.19999999999999L88.91923177083332,49.28L89.15890625,38.72L89.39858072916667,45.760000000000005L89.63825520833333,35.19999999999999L89.8779296875,42.239999999999995L90.11760416666667,56.31999999999999L90.35727864583333,52.80000000000001L90.596953125,63.36L90.83662760416668,42.239999999999995L91.07630208333333,24.64L91.3159765625,38.72L91.55565104166668,42.239999999999995L91.79532552083333,35.19999999999999L92.035,35.19999999999999L92.27467447916668,45.760000000000005L92.51434895833333,38.72L92.7540234375,45.760000000000005L92.99369791666666,49.28L93.23337239583333,56.31999999999999L93.47304687500001,49.28L93.71272135416666,17.599999999999994L93.95239583333333,35.19999999999999L94.19207031250001,28.160000000000004L94.43174479166666,28.160000000000004L94.67141927083333,14.079999999999993L94.91109375,21.119999999999997L95.15076822916666,35.19999999999999L95.39044270833334,28.160000000000004L95.6301171875,42.239999999999995L95.86979166666666,45.760000000000005L96.10946614583334,38.72L96.349140625,45.760000000000005L96.58881510416666,45.760000000000005L96.82848958333334,28.160000000000004L97.0681640625,45.760000000000005L97.30783854166667,38.72L97.54751302083334,28.160000000000004L97.7871875,35.19999999999999L98.02686197916667,35.19999999999999L98.26653645833333,31.680000000000007L98.5062109375,31.680000000000007L98.74588541666667,21.119999999999997L98.98555989583333,49.28L99.225234375,42.239999999999995L99.46490885416667,28.160000000000004L99.70458333333333,38.72L99.9442578125,24.64L100.18393229166666,24.64L100.42360677083333,45.760000000000005L100.66328125,17.599999999999994L100.90295572916666,24.64L101.14263020833334,17.599999999999994L101.3823046875,24.64L101.62197916666666,31.680000000000007L101.86165364583334,31.680000000000007L102.101328125,24.64L102.34100260416666,45.760000000000005L102.58067708333334,21.119999999999997L102.8203515625,17.599999999999994L103.06002604166667,24.64L103.29970052083334,21.119999999999997L103.53937499999999,31.680000000000007L103.77904947916667,24.64L104.01872395833334,35.19999999999999L104.25839843749999,31.680000000000007L104.49807291666667,28.160000000000004L104.73774739583334,28.160000000000004L104.977421875,17.599999999999994L105.21709635416667,21.119999999999997L105.45677083333332,21.119999999999997L105.6964453125,24.64L105.93611979166667,21.119999999999997L106.17579427083332,21.119999999999997L106.41546875,35.19999999999999L106.65514322916667,17.599999999999994L106.89481770833332,21.119999999999997L107.1344921875,17.599999999999994L107.37416666666667,31.680000000000007L107.61384114583333,17.599999999999994L107.853515625,28.160000000000004L108.09319010416667,28.160000000000004L108.33286458333333,31.680000000000007L108.5725390625,28.160000000000004L108.81221354166668,42.239999999999995L109.05188802083333,14.079999999999993L109.2915625,17.599999999999994L109.53123697916668,38.72L109.77091145833333,35.19999999999999L110.0105859375,28.160000000000004L110.25026041666668,17.599999999999994L110.48993489583333,31.680000000000007L110.729609375,38.72L110.96928385416666,28.160000000000004L111.20895833333333,28.160000000000004L111.44863281250001,31.680000000000007L111.68830729166666,17.599999999999994L111.92798177083333,31.680000000000007L112.16765625000001,17.599999999999994L112.40733072916666,21.119999999999997L112.64700520833333,14.079999999999993L112.8866796875,24.64L113.12635416666666,24.64L113.36602864583334,21.119999999999997L113.605703125,45.760000000000005L113.84537760416666,31.680000000000007L114.08505208333334,28.160000000000004L114.3247265625,24.64L114.56440104166666,28.160000000000004L114.80407552083334,24.64L115.04375,28.160000000000004L115.28342447916667,24.64L115.52309895833334,21.119999999999997L115.7627734375,14.079999999999993L116.00244791666667,14.079999999999993L116.24212239583333,24.64L116.481796875,31.680000000000007L116.72147135416667,17.599999999999994L116.96114583333333,21.119999999999997L117.2008203125,14.079999999999993L117.44049479166667,14.079999999999993L117.68016927083333,14.079999999999993L117.91984375,31.680000000000007L118.15951822916666,28.160000000000004L118.39919270833333,17.599999999999994L118.6388671875,17.599999999999994L118.87854166666666,17.599999999999994L119.11821614583334,14.079999999999993L119.357890625,24.64L119.59756510416666,24.64L119.83723958333334,24.64L120.0769140625,31.680000000000007L120.31658854166666,28.160000000000004L120.55626302083334,52.80000000000001L120.7959375,38.72L121.03561197916667,24.64L121.27528645833334,14.079999999999993L121.51496093749999,28.160000000000004L121.75463541666667,17.599999999999994L121.99430989583334,24.64L122.23398437499999,21.119999999999997L122.47365885416667,21.119999999999997L122.71333333333334,28.160000000000004L122.9530078125,17.599999999999994L123.19268229166667,28.160000000000004L123.43235677083332,17.599999999999994L123.67203125,14.079999999999993L123.91170572916667,14.079999999999993L124.15138020833332,14.079999999999993L124.3910546875,17.599999999999994L124.63072916666667,14.079999999999993L124.87040364583332,17.599999999999994L125.110078125,17.599999999999994L125.34975260416667,14.079999999999993L125.58942708333333,28.160000000000004L125.8291015625,31.680000000000007L126.06877604166667,24.64L126.30845052083333,21.119999999999997L126.548125,14.079999999999993L126.78779947916668,14.079999999999993L127.02747395833333,14.079999999999993L127.2671484375,21.119999999999997L127.50682291666668,21.119999999999997L127.74649739583333,24.64L127.986171875,28.160000000000004L128.22584635416666,35.19999999999999L128.46552083333333,28.160000000000004L128.7051953125,31.680000000000007L128.94486979166666,28.160000000000004L129.18454427083333,35.19999999999999L129.42421875,31.680000000000007L129.66389322916666,38.72L129.90356770833333,28.160000000000004L130.1432421875,28.160000000000004L130.38291666666666,35.19999999999999L130.62259114583333,35.19999999999999L130.862265625,31.680000000000007L131.10194010416666,24.64L131.34161458333332,35.19999999999999L131.5812890625,42.239999999999995L131.82096354166666,35.19999999999999L132.06063802083332,28.160000000000004L132.30031250000002,28.160000000000004L132.53998697916666,24.64L132.77966145833332,31.680000000000007L133.01933593750002,17.599999999999994L133.25901041666665,24.64L133.49868489583332,28.160000000000004L133.73835937500002,28.160000000000004L133.97803385416665,42.239999999999995L134.21770833333335,28.160000000000004L134.45738281250001,35.19999999999999L134.69705729166665,21.119999999999997L134.93673177083335,21.119999999999997L135.17640624999999,31.680000000000007L135.41608072916665,28.160000000000004L135.65575520833335,38.72L135.89542968749998,31.680000000000007L136.13510416666668,31.680000000000007L136.37477864583335,24.64L136.61445312499998,17.599999999999994L136.85412760416668,42.239999999999995L137.09380208333334,31.680000000000007L137.33347656249998,21.119999999999997L137.57315104166668,24.64L137.81282552083334,38.72L138.0525,28.160000000000004L138.29217447916668,24.64L138.53184895833334,28.160000000000004L138.7715234375,17.599999999999994L139.01119791666667,24.64L139.25087239583334,21.119999999999997L139.490546875,21.119999999999997L139.73022135416667,28.160000000000004L139.96989583333334,28.160000000000004L140.2095703125,17.599999999999994L140.44924479166667,28.160000000000004L140.68891927083334,17.599999999999994L140.92859375,38.72L141.16826822916667,28.160000000000004L141.40794270833334,21.119999999999997L141.6476171875,31.680000000000007L141.88729166666667,31.680000000000007L142.12696614583334,31.680000000000007L142.366640625,24.64L142.60631510416667,17.599999999999994L142.84598958333333,28.160000000000004L143.0856640625,24.64L143.32533854166667,28.160000000000004L143.56501302083333,21.119999999999997L143.8046875,31.680000000000007L144.04436197916667,24.64L144.28403645833333,21.119999999999997L144.5237109375,28.160000000000004L144.76338541666667,17.599999999999994L145.00305989583333,17.599999999999994L145.242734375,17.599999999999994L145.48240885416666,21.119999999999997L145.72208333333336,38.72L145.9617578125,21.119999999999997L146.20143229166666,38.72L146.44110677083333,21.119999999999997L146.68078125,35.19999999999999L146.92045572916666,14.079999999999993L147.16013020833336,17.599999999999994L147.3998046875,17.599999999999994L147.63947916666666,31.680000000000007L147.87915364583333,31.680000000000007L148.118828125,21.119999999999997L148.3585026041667,21.119999999999997L148.59817708333335,24.64L148.8378515625,31.680000000000007L149.07752604166666,31.680000000000007L149.31720052083332,21.119999999999997L149.556875,28.160000000000004L149.79654947916669,24.64L150.03622395833332,14.079999999999993L150.2758984375,31.680000000000007L150.51557291666666,21.119999999999997L150.75524739583332,17.599999999999994L150.99492187500002,21.119999999999997L151.23459635416668,21.119999999999997L151.47427083333332,21.119999999999997L151.7139453125,17.599999999999994L151.95361979166665,14.079999999999993L152.19329427083335,14.079999999999993L152.43296875000001,24.64L152.67264322916668,28.160000000000004L152.91231770833332,24.64L153.15199218749999,21.119999999999997L153.39166666666665,31.680000000000007L153.63134114583335,14.079999999999993L153.871015625,17.599999999999994L154.11069010416668,24.64L154.35036458333332,24.64L154.59003906249998,24.64L154.82971354166668,38.72L155.06938802083334,21.119999999999997L155.3090625,21.119999999999997L155.54873697916668,21.119999999999997L155.78841145833331,24.64L156.0280859375,17.599999999999994L156.26776041666668,24.64L156.50743489583334,31.680000000000007L156.747109375,17.599999999999994L156.98678385416665,21.119999999999997L157.2264583333333,17.599999999999994L157.4661328125,24.64L157.70580729166667,24.64L157.94548177083334,24.64L158.18515625,17.599999999999994L158.42483072916664,31.680000000000007L158.66450520833334,28.160000000000004L158.9041796875,21.119999999999997L159.14385416666667,21.119999999999997L159.38352864583334,21.119999999999997L159.623203125,21.119999999999997L159.86287760416664,24.64L160.10255208333334,28.160000000000004L160.3422265625,24.64L160.58190104166667,24.64L160.82157552083333,21.119999999999997L161.06125,28.160000000000004L161.30092447916667,17.599999999999994L161.54059895833333,24.64L161.7802734375,17.599999999999994L162.01994791666667,14.079999999999993L162.25962239583333,14.079999999999993L162.499296875,17.599999999999994L162.73897135416667,14.079999999999993L162.97864583333333,14.079999999999993L163.2183203125,14.079999999999993L163.45799479166666,24.64L163.69766927083336,21.119999999999997L163.93734375,17.599999999999994L164.17701822916666,14.079999999999993L164.41669270833333,17.599999999999994L164.6563671875,21.119999999999997L164.89604166666666,17.599999999999994L165.13571614583336,24.64L165.375390625,21.119999999999997L165.61506510416666,14.079999999999993L165.85473958333333,17.599999999999994L166.0944140625,14.079999999999993L166.3340885416667,24.64L166.57376302083335,24.64L166.8134375,14.079999999999993L167.05311197916666,24.64L167.29278645833332,17.599999999999994L167.5324609375,17.599999999999994L167.77213541666669,24.64L168.01180989583332,24.64L168.251484375,24.64L168.49115885416666,21.119999999999997L168.73083333333332,63.36L168.97050781250002,21.119999999999997L169.21018229166668,14.079999999999993L169.44985677083332,17.599999999999994L169.68953125,17.599999999999994L169.92920572916665,24.64L170.16888020833335,28.160000000000004L170.40855468750001,14.079999999999993L170.64822916666668,21.119999999999997L170.88790364583332,14.079999999999993L171.12757812499999,28.160000000000004L171.36725260416665,14.079999999999993L171.60692708333335,24.64L171.8466015625,24.64L172.08627604166668,14.079999999999993L172.32595052083332,28.160000000000004L172.56562499999998,21.119999999999997L172.80529947916668,28.160000000000004L173.04497395833334,35.19999999999999L173.2846484375,31.680000000000007L173.52432291666668,24.64L173.76399739583331,35.19999999999999L174.003671875,45.760000000000005L174.24334635416668,17.599999999999994L174.48302083333334,21.119999999999997L174.7226953125,24.64L174.96236979166665,28.160000000000004L175.2020442708333,31.680000000000007L175.44171875,42.239999999999995L175.68139322916667,38.72L175.92106770833334,31.680000000000007L176.1607421875,38.72L176.40041666666664,24.64L176.64009114583334,35.19999999999999L176.879765625,21.119999999999997L177.11944010416667,35.19999999999999L177.35911458333334,31.680000000000007L177.5987890625,24.64L177.83846354166664,31.680000000000007L178.07813802083334,35.19999999999999L178.3178125,35.19999999999999L178.55748697916667,49.28L178.79716145833333,17.599999999999994L179.0368359375,24.64L179.27651041666667,21.119999999999997L179.51618489583333,31.680000000000007L179.755859375,35.19999999999999L179.99553385416667,24.64L180.23520833333333,28.160000000000004L180.4748828125,28.160000000000004L180.71455729166667,24.64L180.95423177083333,38.72L181.19390625,24.64L181.43358072916666,17.599999999999994L181.67325520833336,38.72L181.9129296875,35.19999999999999L182.15260416666666,28.160000000000004L182.39227864583333,24.64L182.631953125,21.119999999999997L182.87162760416666,21.119999999999997L183.11130208333336,31.680000000000007L183.3509765625,35.19999999999999L183.59065104166666,28.160000000000004L183.83032552083333,31.680000000000007L184.07,28.160000000000004L184.3096744791667,21.119999999999997L184.54934895833335,31.680000000000007L184.7890234375,31.680000000000007L185.02869791666666,35.19999999999999L185.26837239583332,42.239999999999995L185.508046875,17.599999999999994L185.74772135416669,35.19999999999999L185.98739583333332,24.64L186.2270703125,35.19999999999999L186.46674479166666,35.19999999999999L186.70641927083332,21.119999999999997L186.94609375000002,21.119999999999997L187.18576822916668,24.64L187.42544270833332,17.599999999999994L187.6651171875,28.160000000000004L187.90479166666665,28.160000000000004L188.14446614583335,17.599999999999994L188.38414062500001,21.119999999999997L188.62381510416668,17.599999999999994L188.86348958333332,14.079999999999993L189.10316406249999,17.599999999999994L189.34283854166665,21.119999999999997L189.58251302083335,21.119999999999997L189.8221875,21.119999999999997L190.06186197916668,17.599999999999994L190.30153645833332,17.599999999999994L190.54121093749998,14.079999999999993L190.78088541666668,17.599999999999994L191.02055989583334,28.160000000000004L191.260234375,14.079999999999993L191.49990885416668,31.680000000000007L191.73958333333331,28.160000000000004L191.9792578125,24.64L192.21893229166668,35.19999999999999L192.45860677083334,28.160000000000004L192.69828125,24.64L192.93795572916665,24.64L193.1776302083333,24.64L193.4173046875,14.079999999999993L193.65697916666667,28.160000000000004L193.89665364583334,35.19999999999999L194.136328125,24.64L194.37600260416664,42.239999999999995L194.61567708333334,24.64L194.8553515625,31.680000000000007L195.09502604166667,42.239999999999995L195.33470052083334,28.160000000000004L195.574375,24.64L195.81404947916664,24.64L196.05372395833334,17.599999999999994L196.2933984375,17.599999999999994L196.53307291666667,24.64L196.77274739583333,21.119999999999997L197.012421875,24.64L197.25209635416667,17.599999999999994L197.49177083333333,17.599999999999994L197.7314453125,17.599999999999994L197.97111979166667,17.599999999999994L198.21079427083333,14.079999999999993L198.45046875,21.119999999999997L198.69014322916667,17.599999999999994L198.92981770833333,21.119999999999997L199.1694921875,17.599999999999994L199.40916666666666,17.599999999999994L199.64884114583336,14.079999999999993L199.888515625,24.64L200.12819010416666,31.680000000000007L200.36786458333333,14.079999999999993L200.6075390625,28.160000000000004L200.84721354166666,17.599999999999994L201.08688802083336,28.160000000000004L201.3265625,28.160000000000004L201.56623697916666,21.119999999999997L201.80591145833333,24.64L202.0455859375,28.160000000000004L202.2852604166667,31.680000000000007L202.52493489583335,38.72L202.764609375,21.119999999999997L203.00428385416666,35.19999999999999L203.24395833333332,14.079999999999993L203.4836328125,35.19999999999999L203.72330729166669,28.160000000000004L203.96298177083332,28.160000000000004L204.20265625,31.680000000000007L204.44233072916666,28.160000000000004L204.68200520833332,31.680000000000007L204.92167968750002,17.599999999999994L205.16135416666668,14.079999999999993L205.40102864583332,21.119999999999997L205.640703125,17.599999999999994L205.88037760416665,21.119999999999997L206.12005208333335,21.119999999999997L206.35972656250001,21.119999999999997L206.59940104166668,28.160000000000004L206.83907552083332,21.119999999999997L207.07874999999999,24.64L207.31842447916665,31.680000000000007L207.55809895833335,24.64L207.7977734375,31.680000000000007L208.03744791666668,28.160000000000004L208.27712239583332,31.680000000000007L208.51679687499998,17.599999999999994L208.75647135416668,17.599999999999994L208.99614583333334,14.079999999999993L209.2358203125,14.079999999999993L209.47549479166668,24.64L209.71516927083331,21.119999999999997L209.95484375,24.64L210.19451822916668,35.19999999999999L210.43419270833334,28.160000000000004L210.6738671875,24.64L210.91354166666665,28.160000000000004L211.1532161458333,35.19999999999999L211.392890625,14.079999999999993L211.63256510416667,21.119999999999997L211.87223958333334,17.599999999999994L212.1119140625,17.599999999999994L212.35158854166664,28.160000000000004L212.59126302083334,17.599999999999994L212.8309375,24.64L213.07061197916667,24.64L213.31028645833334,14.079999999999993L213.5499609375,21.119999999999997L213.78963541666664,17.599999999999994L214.02930989583334,24.64L214.268984375,17.599999999999994L214.50865885416667,24.64L214.74833333333333,17.599999999999994L214.9880078125,28.160000000000004L215.22768229166667,21.119999999999997L215.46735677083333,21.119999999999997L215.70703125,42.239999999999995L215.94670572916667,21.119999999999997L216.18638020833333,35.19999999999999L216.4260546875,21.119999999999997L216.66572916666667,35.19999999999999L216.90540364583333,28.160000000000004L217.145078125,28.160000000000004L217.38475260416666,31.680000000000007L217.62442708333336,17.599999999999994L217.8641015625,21.119999999999997L218.10377604166666,21.119999999999997L218.34345052083333,21.119999999999997L218.583125,28.160000000000004L218.82279947916666,17.599999999999994L219.06247395833336,42.239999999999995L219.3021484375,28.160000000000004L219.54182291666666,35.19999999999999L219.78149739583333,49.28L220.021171875,24.64L220.2608463541667,21.119999999999997L220.50052083333335,28.160000000000004L220.7401953125,28.160000000000004L220.97986979166666,21.119999999999997L221.21954427083332,24.64L221.45921875,17.599999999999994L221.69889322916669,31.680000000000007L221.93856770833332,31.680000000000007L222.1782421875,28.160000000000004L222.41791666666666,31.680000000000007L222.65759114583332,31.680000000000007L222.89726562500002,42.239999999999995L223.13694010416668,24.64L223.37661458333332,24.64L223.6162890625,24.64L223.85596354166665,35.19999999999999L224.09563802083335,31.680000000000007L224.33531250000001,14.079999999999993L224.57498697916668,28.160000000000004L224.81466145833332,24.64L225.05433593749999,21.119999999999997L225.29401041666665,24.64L225.53368489583335,24.64L225.773359375,28.160000000000004L226.01303385416668,24.64L226.25270833333332,14.079999999999993L226.49238281249998,14.079999999999993L226.73205729166668,21.119999999999997L226.97173177083334,28.160000000000004L227.21140625,17.599999999999994L227.45108072916668,17.599999999999994L227.69075520833331,21.119999999999997L227.9304296875,24.64L228.17010416666668,21.119999999999997L228.40977864583334,31.680000000000007L228.649453125,17.599999999999994L228.88912760416665,24.64L229.1288020833333,28.160000000000004L229.3684765625,35.19999999999999L229.60815104166667,31.680000000000007L229.84782552083334,45.760000000000005L230.0875,38.72L230.32717447916664,21.119999999999997L230.56684895833334,31.680000000000007L230.8065234375,28.160000000000004L231.04619791666667,35.19999999999999L231.28587239583334,28.160000000000004L231.525546875,21.119999999999997L231.76522135416664,28.160000000000004L232.00489583333334,21.119999999999997L232.2445703125,24.64L232.48424479166667,24.64L232.72391927083333,24.64L232.96359375,17.599999999999994L233.20326822916667,21.119999999999997L233.44294270833333,17.599999999999994L233.6826171875,21.119999999999997L233.92229166666667,24.64L234.16196614583333,14.079999999999993L234.401640625,21.119999999999997L234.64131510416667,14.079999999999993L234.88098958333333,14.079999999999993L235.1206640625,28.160000000000004L235.36033854166666,14.079999999999993L235.60001302083336,21.119999999999997L235.8396875,17.599999999999994L236.07936197916666,31.680000000000007L236.31903645833333,21.119999999999997L236.5587109375,21.119999999999997L236.79838541666666,35.19999999999999L237.03805989583336,28.160000000000004L237.277734375,17.599999999999994L237.51740885416666,17.599999999999994L237.75708333333333,21.119999999999997L237.9967578125,21.119999999999997L238.2364322916667,52.80000000000001L238.47610677083335,28.160000000000004L238.71578125,35.19999999999999L238.95545572916666,31.680000000000007L239.19513020833332,49.28L239.4348046875,38.72L239.67447916666669,42.239999999999995L239.91415364583332,35.19999999999999L240.153828125,28.160000000000004L240.39350260416666,35.19999999999999L240.63317708333332,42.239999999999995L240.87285156250002,24.64L241.11252604166668,24.64L241.35220052083332,28.160000000000004L241.591875,38.72L241.83154947916665,31.680000000000007L242.07122395833335,42.239999999999995L242.31089843750001,17.599999999999994L242.55057291666668,28.160000000000004L242.79024739583332,21.119999999999997L243.02992187499999,24.64L243.26959635416665,42.239999999999995L243.50927083333335,38.72L243.7489453125,31.680000000000007L243.98861979166668,24.64L244.22829427083332,28.160000000000004L244.46796874999998,21.119999999999997L244.70764322916668,38.72L244.94731770833334,21.119999999999997L245.1869921875,45.760000000000005L245.42666666666668,45.760000000000005L245.66634114583331,42.239999999999995L245.906015625,35.19999999999999L246.14569010416668,45.760000000000005L246.38536458333334,24.64L246.6250390625,28.160000000000004L246.86471354166665,38.72L247.1043880208333,35.19999999999999L247.3440625,38.72L247.58373697916667,28.160000000000004L247.82341145833334,35.19999999999999L248.0630859375,31.680000000000007L248.30276041666664,38.72L248.54243489583334,24.64L248.782109375,17.599999999999994L249.02178385416667,31.680000000000007L249.26145833333334,38.72L249.5011328125,35.19999999999999L249.74080729166664,28.160000000000004L249.98048177083334,28.160000000000004L250.22015625,21.119999999999997L250.45983072916667,28.160000000000004L250.69950520833333,28.160000000000004L250.9391796875,45.760000000000005L251.17885416666667,31.680000000000007L251.41852864583333,35.19999999999999L251.658203125,28.160000000000004L251.89787760416667,28.160000000000004L252.13755208333333,31.680000000000007L252.3772265625,28.160000000000004L252.61690104166667,24.64L252.85657552083333,24.64L253.09625,21.119999999999997L253.33592447916666,35.19999999999999L253.57559895833336,17.599999999999994L253.8152734375,24.64L254.05494791666666,31.680000000000007L254.29462239583333,21.119999999999997L254.534296875,35.19999999999999L254.77397135416666,35.19999999999999L255.01364583333336,35.19999999999999L255.2533203125,35.19999999999999L255.49299479166666,45.760000000000005L255.73266927083333,38.72L255.97234375,17.599999999999994L256.2120182291667,35.19999999999999L256.4516927083333,35.19999999999999L256.69136718749996,49.28L256.93104166666666,28.160000000000004L257.17071614583335,38.72L257.410390625,21.119999999999997L257.6500651041667,24.64L257.8897395833333,31.680000000000007L258.1294140625,31.680000000000007L258.36908854166666,52.80000000000001L258.60876302083335,28.160000000000004L258.8484375,28.160000000000004L259.0881119791667,21.119999999999997L259.3277864583333,45.760000000000005L259.5674609375,17.599999999999994L259.80713541666665,38.72L260.04680989583335,45.760000000000005L260.286484375,42.239999999999995L260.5261588541667,42.239999999999995L260.7658333333333,31.680000000000007L261.0055078125,17.599999999999994L261.24518229166665,24.64L261.48485677083335,49.28L261.72453125,38.72" style="fill: none;" fill="none"></path></g></g></g></g></g></g><g transform="translate(42, 176)" clip-path="url(#clip_1)"><clipPath id="clip_1"><rect width="287" height="24"></rect></clipPath><g><g><line x1="0" y1="0" x2="0" y2="5" style="visibility: inherit;" fill="rgb(0, 0, 0)" stroke="rgb(204, 204, 204)" stroke-width="1px"></line><line x1="23.967447916666664" y1="0" x2="23.967447916666664" y2="5" style="visibility: inherit;" fill="rgb(0, 0, 0)" stroke="rgb(204, 204, 204)" stroke-width="1px"></line><line x1="47.93489583333333" y1="0" x2="47.93489583333333" y2="5" style="visibility: inherit;" fill="rgb(0, 0, 0)" stroke="rgb(204, 204, 204)" stroke-width="1px"></line><line x1="71.90234375" y1="0" x2="71.90234375" y2="5" style="visibility: inherit;" fill="rgb(0, 0, 0)" stroke="rgb(204, 204, 204)" stroke-width="1px"></line><line x1="95.86979166666666" y1="0" x2="95.86979166666666" y2="5" style="visibility: inherit;" fill="rgb(0, 0, 0)" stroke="rgb(204, 204, 204)" stroke-width="1px"></line><line x1="119.83723958333334" y1="0" x2="119.83723958333334" y2="5" style="visibility: inherit;" fill="rgb(0, 0, 0)" stroke="rgb(204, 204, 204)" stroke-width="1px"></line><line x1="143.8046875" y1="0" x2="143.8046875" y2="5" style="visibility: inherit;" fill="rgb(0, 0, 0)" stroke="rgb(204, 204, 204)" stroke-width="1px"></line><line x1="167.77213541666669" y1="0" x2="167.77213541666669" y2="5" style="visibility: inherit;" fill="rgb(0, 0, 0)" stroke="rgb(204, 204, 204)" stroke-width="1px"></line><line x1="191.73958333333331" y1="0" x2="191.73958333333331" y2="5" style="visibility: inherit;" fill="rgb(0, 0, 0)" stroke="rgb(204, 204, 204)" stroke-width="1px"></line><line x1="215.70703125" y1="0" x2="215.70703125" y2="5" style="visibility: inherit;" fill="rgb(0, 0, 0)" stroke="rgb(204, 204, 204)" stroke-width="1px"></line><line x1="239.67447916666669" y1="0" x2="239.67447916666669" y2="5" style="visibility: inherit;" fill="rgb(0, 0, 0)" stroke="rgb(204, 204, 204)" stroke-width="1px"></line><line x1="263.6419270833333" y1="0" x2="263.6419270833333" y2="5" style="visibility: inherit;" fill="rgb(0, 0, 0)" stroke="rgb(204, 204, 204)" stroke-width="1px"></line><line x1="287.609375" y1="0" x2="287.609375" y2="5" style="visibility: inherit;" fill="rgb(0, 0, 0)" stroke="rgb(204, 204, 204)" stroke-width="1px"></line></g><g transform="translate(0, 8)"><text x="0" y="0" dx="0em" dy="0.95em" style="text-anchor: middle; visibility: hidden; font-family: Roboto, sans-serif; font-size: 12px; font-weight: 200;" fill="rgb(33, 33, 33)" stroke="none" stroke-width="1px">-100</text><text x="23.967447916666664" y="0" dx="0em" dy="0.95em" style="text-anchor: middle; visibility: inherit; font-family: Roboto, sans-serif; font-size: 12px; font-weight: 200;" fill="rgb(33, 33, 33)" stroke="none" stroke-width="1px">0</text><text x="47.93489583333333" y="0" dx="0em" dy="0.95em" style="text-anchor: middle; visibility: hidden; font-family: Roboto, sans-serif; font-size: 12px; font-weight: 200;" fill="rgb(33, 33, 33)" stroke="none" stroke-width="1px">100</text><text x="71.90234375" y="0" dx="0em" dy="0.95em" style="text-anchor: middle; visibility: inherit; font-family: Roboto, sans-serif; font-size: 12px; font-weight: 200;" fill="rgb(33, 33, 33)" stroke="none" stroke-width="1px">200</text><text x="95.86979166666666" y="0" dx="0em" dy="0.95em" style="text-anchor: middle; visibility: hidden; font-family: Roboto, sans-serif; font-size: 12px; font-weight: 200;" fill="rgb(33, 33, 33)" stroke="none" stroke-width="1px">300</text><text x="119.83723958333334" y="0" dx="0em" dy="0.95em" style="text-anchor: middle; visibility: inherit; font-family: Roboto, sans-serif; font-size: 12px; font-weight: 200;" fill="rgb(33, 33, 33)" stroke="none" stroke-width="1px">400</text><text x="143.8046875" y="0" dx="0em" dy="0.95em" style="text-anchor: middle; visibility: hidden; font-family: Roboto, sans-serif; font-size: 12px; font-weight: 200;" fill="rgb(33, 33, 33)" stroke="none" stroke-width="1px">500</text><text x="167.77213541666669" y="0" dx="0em" dy="0.95em" style="text-anchor: middle; visibility: inherit; font-family: Roboto, sans-serif; font-size: 12px; font-weight: 200;" fill="rgb(33, 33, 33)" stroke="none" stroke-width="1px">600</text><text x="191.73958333333331" y="0" dx="0em" dy="0.95em" style="text-anchor: middle; visibility: hidden; font-family: Roboto, sans-serif; font-size: 12px; font-weight: 200;" fill="rgb(33, 33, 33)" stroke="none" stroke-width="1px">700</text><text x="215.70703125" y="0" dx="0em" dy="0.95em" style="text-anchor: middle; visibility: inherit; font-family: Roboto, sans-serif; font-size: 12px; font-weight: 200;" fill="rgb(33, 33, 33)" stroke="none" stroke-width="1px">800</text><text x="239.67447916666669" y="0" dx="0em" dy="0.95em" style="text-anchor: middle; visibility: hidden; font-family: Roboto, sans-serif; font-size: 12px; font-weight: 200;" fill="rgb(33, 33, 33)" stroke="none" stroke-width="1px">900</text><text x="263.6419270833333" y="0" dx="0em" dy="0.95em" style="text-anchor: middle; visibility: inherit; font-family: Roboto, sans-serif; font-size: 12px; font-weight: 200;" fill="rgb(33, 33, 33)" stroke="none" stroke-width="1px">1k</text><text x="287.609375" y="0" dx="0em" dy="0.95em" style="text-anchor: middle; visibility: hidden; font-family: Roboto, sans-serif; font-size: 12px; font-weight: 200;" fill="rgb(33, 33, 33)" stroke="none" stroke-width="1px">1.1k</text></g><line x1="0" y1="0" x2="287.609375" y2="0" fill="rgb(0, 0, 0)" stroke="rgb(204, 204, 204)" stroke-width="1px"></line></g></g></g></g></svg>